<svg xmlns="http://www.w3.org/2000/svg" width="890.6150512695312" height="886.1795654296875" viewBox="-354.09637451171875 -346.4557189941406 890.6150512695312 886.1795654296875"><title>Neo4j Graph Visualization</title><desc>Created using Neo4j (http://www.neo4j.com/)</desc><g class="layer relationships"><g class="relationship" transform="translate(196.11472249774752 231.9620522356601) rotate(373.6577153187955)"><path class="outline" fill="#A5ABB6" stroke="none" d="M 24.018736134675446,6.953439040707552 L 24.277555179777966,5.987513214418485 A 107.88645556905242 107.88645556905242 0 0 0 27.385959168521854,6.771102512136821 L 27.155951932764154,7.744291430846388 A 108.88645556905242 108.88645556905242 0 0 1 24.018736134675446,6.953439040707552 Z M 73.89057040739394,8.481493936333635 L 73.69137257599807,7.5015346392364535 A 107.88645556905242 107.88645556905242 0 0 0 76.82294492655203,6.8163761480948 L 76.13827176140748,3.895550467412888 L 83.75231704233391,5.705609709537853 L 77.73584248007808,10.710810389004017 L 77.05116931493353,7.789984708322104 A 108.88645556905242 108.88645556905242 0 0 1 73.89057040739394,8.481493936333635"/><text text-anchor="middle" pointer-events="none" font-size="8px" fill="#000000" x="50.49112464901765" y="13.150172860647501" font-family="sans-serif">DIRECTED</text></g><g class="relationship" transform="translate(196.11472249774752 231.9620522356601) rotate(373.6577153187955)"><path class="outline" fill="#A5ABB6" stroke="none" d="M 24.018736134675446,-6.953439040707552 L 24.277555179777966,-5.987513214418485 A 107.88645556905242 107.88645556905242 0 0 1 32.80083190824085,-7.905119170286525 L 32.62101515015857,-8.888819294060426 A 108.88645556905242 108.88645556905242 0 0 0 24.018736134675446,-6.953439040707552 Z M 68.39212711239416,-9.45308095326152 L 68.24342631725743,-8.464198718854561 A 107.88645556905242 107.88645556905242 0 0 1 76.82294492655203,-6.8163761480948 L 76.13827176140748,-3.895550467412888 L 83.75231704233391,-5.705609709537853 L 77.73584248007808,-10.710810389004017 L 77.05116931493353,-7.789984708322104 A 108.88645556905242 108.88645556905242 0 0 0 68.39212711239416,-9.45308095326152"/><text text-anchor="middle" pointer-events="none" font-size="8px" fill="#000000" x="50.49112464901764" y="-7.150172860647487" font-family="sans-serif">WROTE</text></g><g class="relationship" transform="translate(233.12185124127066 344.42354132584825) rotate(308.04298075933673)"><path class="outline" fill="#A5ABB6" stroke="none" d="M 24.018736134675446,6.953439040707552 L 24.277555179777966,5.987513214418485 A 112.4759352243807 112.4759352243807 0 0 0 28.51498743930889,7.035241217148908 L 28.29384251757398,8.010482173831335 A 113.4759352243807 113.4759352243807 0 0 1 24.018736134675446,6.953439040707552 Z M 75.04906977785564,8.733537696600038 L 74.85818701136017,7.751924855682063 A 112.4759352243807 112.4759352243807 0 0 0 79.12599078152681,6.8357277692594804 L 78.43951003170373,3.9153263961392817 L 86.05467411044445,5.720672915192328 L 80.04129844795757,10.729596266753079 L 79.3548176981345,7.80919489363288 A 113.4759352243807 113.4759352243807 0 0 1 75.04906977785564,8.733537696600038"/><text text-anchor="middle" pointer-events="none" font-size="8px" fill="#000000" x="51.64153936604819" y="13.306530703915257" font-family="sans-serif">DIRECTED</text></g><g class="relationship" transform="translate(233.12185124127066 344.42354132584825) rotate(308.04298075933673)"><path class="outline" fill="#A5ABB6" stroke="none" d="M 24.018736134675446,-6.953439040707552 L 24.277555179777966,-5.987513214418485 A 112.4759352243807 112.4759352243807 0 0 1 33.939887524128906,-8.125818862796933 L 33.76697425367121,-9.110755917079914 A 113.4759352243807 113.4759352243807 0 0 0 24.018736134675446,-6.953439040707552 Z M 69.54453262241299,-9.664045093190396 L 69.40215826560419,-8.674232210609404 A 112.4759352243807 112.4759352243807 0 0 1 79.12599078152681,-6.8357277692594804 L 78.43951003170373,-3.9153263961392817 L 86.05467411044445,-5.720672915192328 L 80.04129844795757,-10.729596266753079 L 79.3548176981345,-7.80919489363288 A 113.4759352243807 113.4759352243807 0 0 0 69.54453262241299,-9.664045093190396"/><text text-anchor="middle" pointer-events="none" font-size="8px" fill="#000000" x="51.641539366048136" y="-7.306530703915257" font-family="sans-serif">WROTE</text></g><g class="relationship" transform="translate(393.0929554481594 426.6670465384942) rotate(504.82559010825025)"><path class="outline" fill="#A5ABB6" stroke="none" d="M 21.40063509461097,12.933012701892217 L 21.90063509461097,12.06698729810778 A 60.6510627313853 60.6510627313853 0 0 0 25.625426201196987,14.048066450582773 L 25.186839652814193,14.94675540655011 A 61.6510627313853 61.6510627313853 0 0 1 21.40063509461097,12.933012701892217 Z M 75.82194604971336,16.498563636838874 L 75.43921494105078,15.574703853937862 A 60.6510627313853 60.6510627313853 0 0 0 79.27832959492996,13.825434843624201 L 77.94024109739927,11.140380063405358 L 85.76647216502903,11.150737479422398 L 81.06244759163754,17.40550788391599 L 79.72435909410684,14.72045310369715 A 61.6510627313853 61.6510627313853 0 0 1 75.82194604971336,16.498563636838874"/><text text-anchor="middle" pointer-events="none" font-size="8px" fill="#000000" x="50.35295641892792" y="23.663991648967837" transform="rotate(180 50.35295641892792 20.663991648967837)" font-family="sans-serif">PRODUCED</text></g><g class="relationship" transform="translate(393.0929554481594 426.6670465384942) rotate(504.82559010825025)"><path class="outline" fill="#A5ABB6" stroke="none" d="M 25 0.5 L 27.125651833426346 0.5 L 27.125651833426346 -0.5 L 25 -0.5 Z M 74.01627683342635 0.5 L 76.14192866685269 0.5 L 76.14192866685269 3.5 L 83.14192866685269 0 L 76.14192866685269 -3.5 L 76.14192866685269 -0.5 L 74.01627683342635 -0.5 Z"/><text text-anchor="middle" pointer-events="none" font-size="8px" fill="#000000" x="50.570964333426346" y="3" transform="rotate(180 50.570964333426346 0)" font-family="sans-serif">DIRECTED</text></g><g class="relationship" transform="translate(393.0929554481594 426.6670465384942) rotate(504.82559010825025)"><path class="outline" fill="#A5ABB6" stroke="none" d="M 21.40063509461097,-12.933012701892217 L 21.90063509461097,-12.06698729810778 A 60.6510627313853 60.6510627313853 0 0 1 32.96681275483415,-17.053613698327 L 32.64926920591455,-18.001857387754747 A 61.6510627313853 61.6510627313853 0 0 0 21.40063509461097,-12.933012701892217 Z M 68.1864382430803,-19.09096088367263 L 67.92755751863415,-18.125051586424576 A 60.6510627313853 60.6510627313853 0 0 1 79.27832959492996,-13.825434843624201 L 77.94024109739927,-11.140380063405358 L 85.76647216502903,-11.150737479422398 L 81.06244759163754,-17.40550788391599 L 79.72435909410684,-14.72045310369715 A 61.6510627313853 61.6510627313853 0 0 0 68.1864382430803,-19.09096088367263"/><text text-anchor="middle" pointer-events="none" font-size="8px" fill="#000000" x="50.35295641892793" y="-17.663991648967837" transform="rotate(180 50.35295641892793 -20.663991648967837)" font-family="sans-serif">WROTE</text></g><g class="relationship" transform="translate(485.2869872399716 208.94701904877144) rotate(282.34447351455003)"><path class="outline" fill="#A5ABB6" stroke="none" d="M 21.40063509461097,12.933012701892217 L 21.90063509461097,12.06698729810778 A 56.35085574617125 56.35085574617125 0 0 0 30.943214410465227,16.26904524711312 L 30.603683656160197,17.20964020078928 A 57.35085574617125 57.35085574617125 0 0 1 21.40063509461097,12.933012701892217 Z M 66.08136146557295,18.33794975972865 L 65.80228457492089,17.37768100094079 A 56.35085574617125 56.35085574617125 0 0 0 75.09359916991792,13.758702583333207 L 73.7617186223583,11.070563039516282 L 81.58790486341735,11.099004562996903 L 76.86943989999742,17.342888641755778 L 75.5375593524378,14.65474909793885 A 57.35085574617125 57.35085574617125 0 0 1 66.08136146557295,18.33794975972865"/><text text-anchor="middle" pointer-events="none" font-size="8px" fill="#000000" x="48.26892810221533" y="23.08784122040734" font-family="sans-serif">WROTE</text></g><g class="relationship" transform="translate(485.2869872399716 208.94701904877144) rotate(282.34447351455003)"><path class="outline" fill="#A5ABB6" stroke="none" d="M 25 0.5 L 25.049221364279227 0.5 L 25.049221364279227 -0.5 L 25 -0.5 Z M 71.93984636427922 0.5 L 71.98906772855845 0.5 L 71.98906772855845 3.5 L 78.98906772855845 0 L 71.98906772855845 -3.5 L 71.98906772855845 -0.5 L 71.93984636427922 -0.5 Z"/><text text-anchor="middle" pointer-events="none" font-size="8px" fill="#000000" x="48.49453386427923" y="3" font-family="sans-serif">DIRECTED</text></g><g class="relationship" transform="translate(485.2869872399716 208.94701904877144) rotate(282.34447351455003)"><path class="outline" fill="#A5ABB6" stroke="none" d="M 21.40063509461097,-12.933012701892217 L 21.90063509461097,-12.06698729810778 A 56.35085574617125 56.35085574617125 0 0 1 23.694925027773607,-13.059835879261094 L 23.2267664241358,-13.943480333688271 A 57.35085574617125 57.35085574617125 0 0 0 21.40063509461097,-12.933012701892217 Z M 73.65091078613683,-15.547137833218564 L 73.23984721068157,-14.635531154363072 A 56.35085574617125 56.35085574617125 0 0 1 75.09359916991792,-13.758702583333207 L 73.7617186223583,-11.070563039516282 L 81.58790486341735,-11.099004562996903 L 76.86943989999742,-17.342888641755778 L 75.5375593524378,-14.65474909793885 A 57.35085574617125 57.35085574617125 0 0 0 73.65091078613683,-15.547137833218564"/><text text-anchor="middle" pointer-events="none" font-size="8px" fill="#000000" x="48.268928102215334" y="-17.08784122040734" font-family="sans-serif">PRODUCED</text></g><g class="relationship" transform="translate(148.022990620803 -48.846156210198835) rotate(449.7680208697308)"><path class="outline" fill="#A5ABB6" stroke="none" d="M 24.018736134675446,-6.953439040707552 L 24.277555179777966,-5.987513214418485 A 106.6327802518434 106.6327802518434 0 0 1 32.49017346785063,-7.843932818029302 L 32.30837218659781,-8.827268108830367 A 107.6327802518434 107.6327802518434 0 0 0 24.018736134675446,-6.953439040707552 Z M 68.07752802003404,-9.394597999170244 L 67.92700344526287,-8.405991731543978 A 106.6327802518434 106.6327802518434 0 0 1 76.19436476745436,-6.810958923546445 L 75.51019761447851,-3.890014674371371 L 83.12392920769217,-5.701392941465332 L 77.10658763808881,-10.705551255779877 L 76.42242048511297,-7.784607006604802 A 107.6327802518434 107.6327802518434 0 0 0 68.07752802003404,-9.394597999170244"/><text text-anchor="middle" pointer-events="none" font-size="8px" fill="#000000" x="50.17714425523868" y="-7.1074640892606595" font-family="sans-serif">WROTE</text></g><g class="relationship" transform="translate(148.022990620803 -48.846156210198835) rotate(449.7680208697308)"><path class="outline" fill="#A5ABB6" stroke="none" d="M 24.018736134675446,6.953439040707552 L 24.277555179777966,5.987513214418485 A 106.6327802518434 106.6327802518434 0 0 0 27.078251237496975,6.69743349349001 L 26.84569706189429,7.6700169374215506 A 107.6327802518434 107.6327802518434 0 0 1 24.018736134675446,6.953439040707552 Z M 73.5741561620877,8.411170899805043 L 73.3725632405806,7.431701505695031 A 106.6327802518434 106.6327802518434 0 0 0 76.19436476745436,6.810958923546445 L 75.51019761447851,3.890014674371371 L 83.12392920769217,5.701392941465332 L 77.10658763808881,10.705551255779877 L 76.42242048511297,7.784607006604802 A 107.6327802518434 107.6327802518434 0 0 1 73.5741561620877,8.411170899805043"/><text text-anchor="middle" pointer-events="none" font-size="8px" fill="#000000" x="50.1771442552387" y="13.10746408926066" font-family="sans-serif">DIRECTED</text></g><g class="relationship" transform="translate(256.6082544011066 56.737765169366206) rotate(539.003939830712)"><path class="outline" fill="#A5ABB6" stroke="none" d="M 24.018736134675446,-6.953439040707552 L 24.277555179777966,-5.987513214418485 A 108.03423892634281 108.03423892634281 0 0 1 32.83746664056845,-7.912305393120548 L 32.65788091580826,-8.896047720898693 A 109.03423892634281 109.03423892634281 0 0 0 24.018736134675446,-6.953439040707552 Z M 68.42921760837514,-9.459949733439615 L 68.28072898653735,-8.471035617257257 A 108.03423892634281 108.03423892634281 0 0 1 76.89705718217563,-6.817010958186583 L 76.21232472077746,-3.8961991778235263 L 83.82640674658911,-5.706103844984708 L 77.81003379737318,-10.711426665337326 L 77.12530133597501,-7.790614884974269 A 109.03423892634281 109.03423892634281 0 0 0 68.42921760837514,-9.459949733439615"/><text text-anchor="middle" pointer-events="none" font-size="8px" fill="#000000" x="50.52814447118436" y="-7.155207444233099" transform="rotate(180 50.52814447118436 -10.155207444233099)" font-family="sans-serif">WROTE</text></g><g class="relationship" transform="translate(256.6082544011066 56.737765169366206) rotate(539.003939830712)"><path class="outline" fill="#A5ABB6" stroke="none" d="M 24.018736134675446,6.953439040707552 L 24.277555179777966,5.987513214418485 A 108.03423892634281 108.03423892634281 0 0 0 27.422252384495287,6.779742072685238 L 27.192541677971068,7.753001026565528 A 109.03423892634281 109.03423892634281 0 0 1 24.018736134675446,6.953439040707552 Z M 73.92787037419731,8.489740224629642 L 73.72895123787191,7.509724318022222 A 108.03423892634281 108.03423892634281 0 0 0 76.89705718217563,6.817010958186583 L 76.21232472077746,3.8961991778235263 L 83.82640674658911,5.706103844984708 L 77.81003379737318,10.711426665337326 L 77.12530133597501,7.790614884974269 A 109.03423892634281 109.03423892634281 0 0 1 73.92787037419731,8.489740224629642"/><text text-anchor="middle" pointer-events="none" font-size="8px" fill="#000000" x="50.528144471184376" y="13.155207444233099" transform="rotate(180 50.528144471184376 10.155207444233099)" font-family="sans-serif">DIRECTED</text></g><g class="relationship" transform="translate(466.7396486153633 -78.37896440270042) rotate(251.19306698826904)"><path class="outline" fill="#A5ABB6" stroke="none" d="M 24.018736134675446,-6.953439040707552 L 24.277555179777966,-5.987513214418485 A 105.24591939866609 105.24591939866609 0 0 1 26.738226618060047,-6.615130535453659 L 26.502787780497556,-7.587019702883367 A 106.24591939866609 106.24591939866609 0 0 0 24.018736134675446,-6.953439040707552 Z M 73.22414250734494,-8.33258927785461 L 73.01983405869369,-7.3536827155057125 A 105.24591939866609 105.24591939866609 0 0 1 75.49927826228307,-6.804898723276014 L 74.81567718226506,-3.8838219417794697 L 82.42905759911135,-5.69667566681675 L 76.41074636897375,-10.699667765271407 L 75.72714528895574,-7.778590983774863 A 106.24591939866609 106.24591939866609 0 0 0 73.22414250734494,-8.33258927785461"/><text text-anchor="middle" pointer-events="none" font-size="8px" fill="#000000" x="49.82994716401633" y="-7.0602193697251465" transform="rotate(180 49.82994716401633 -10.060219369725147)" font-family="sans-serif">DIRECTED</text></g><g class="relationship" transform="translate(466.7396486153633 -78.37896440270042) rotate(251.19306698826904)"><path class="outline" fill="#A5ABB6" stroke="none" d="M 24.018736134675446,6.953439040707552 L 24.277555179777966,5.987513214418485 A 105.24591939866609 105.24591939866609 0 0 0 32.14676991322224,7.7757671005304445 L 31.962720652814514,8.758684121312655 A 106.24591939866609 106.24591939866609 0 0 1 24.018736134675446,6.953439040707552 Z M 67.72960485276877,9.329444554243366 L 67.57701168584951,8.34115546424512 A 105.24591939866609 105.24591939866609 0 0 0 75.49927826228307,6.804898723276014 L 74.81567718226506,3.8838219417794697 L 82.42905759911135,5.69667566681675 L 76.41074636897375,10.699667765271407 L 75.72714528895574,7.778590983774863 A 106.24591939866609 106.24591939866609 0 0 1 67.72960485276877,9.329444554243366"/><text text-anchor="middle" pointer-events="none" font-size="8px" fill="#000000" x="49.82994716401638" y="13.060219369725147" transform="rotate(180 49.82994716401638 10.060219369725147)" font-family="sans-serif">WROTE</text></g><g class="relationship" transform="translate(327.65473218551784 -177.5858708680969) rotate(358.9797262428074)"><path class="outline" fill="#A5ABB6" stroke="none" d="M 24.018736134675446,-6.953439040707552 L 24.277555179777966,-5.987513214418485 A 101.06255397404847 101.06255397404847 0 0 1 31.112649079044616,-7.566904296155556 L 30.921462343145578,-8.548457978852682 A 102.06255397404847 102.06255397404847 0 0 0 24.018736134675446,-6.953439040707552 Z M 66.68073912971458,-9.129803110065367 L 66.52155959126327,-8.14255345848862 A 101.06255397404847 101.06255397404847 0 0 1 73.40438080200123,-6.7861770424895695 L 72.72252849359025,-3.864691559124195 L 80.33482231458893,-5.68210257009151 L 74.31351721321586,-10.68149102031007 L 73.63166490480488,-7.7600055369446945 A 102.06255397404847 102.06255397404847 0 0 0 66.68073912971458,-9.129803110065367"/><text text-anchor="middle" pointer-events="none" font-size="8px" fill="#000000" x="48.78356594847255" y="-6.917717604539874" font-family="sans-serif">WROTE</text></g><g class="relationship" transform="translate(327.65473218551784 -177.5858708680969) rotate(358.9797262428074)"><path class="outline" fill="#A5ABB6" stroke="none" d="M 24.018736134675446,6.953439040707552 L 24.277555179777966,5.987513214418485 A 101.06255397404847 101.06255397404847 0 0 0 25.71509315956139,6.361399746993968 L 25.470498354033822,7.331025128834256 A 102.06255397404847 102.06255397404847 0 0 1 24.018736134675446,6.953439040707552 Z M 72.16839614375269,8.090201430971277 L 71.95544902061567,7.113137705952454 A 101.06255397404847 101.06255397404847 0 0 0 73.40438080200123,6.7861770424895695 L 72.72252849359025,3.864691559124195 L 80.33482231458893,5.68210257009151 L 74.31351721321586,10.68149102031007 L 73.63166490480488,7.7600055369446945 A 102.06255397404847 102.06255397404847 0 0 1 72.16839614375269,8.090201430971277"/><text text-anchor="middle" pointer-events="none" font-size="8px" fill="#000000" x="48.78356594847254" y="12.917717604539874" font-family="sans-serif">DIRECTED</text></g><g class="relationship" transform="translate(198.09673107836494 -288.91897109936616) rotate(196.00725951465074)"><path class="outline" fill="#A5ABB6" stroke="none" d="M 21.40063509461097,12.933012701892217 L 21.90063509461097,12.06698729810778 A 55.827401813299836 55.827401813299836 0 0 0 25.623281704338805,14.03297042401988 L 25.189963055947775,14.934211207027715 A 56.827401813299836 56.827401813299836 0 0 1 21.40063509461097,12.933012701892217 Z M 71.11918523935348,16.40164529830777 L 70.7442807292355,15.474581865584199 A 55.827401813299836 55.827401813299836 0 0 0 74.58483278639534,13.75024218659562 L 73.25373931004266,11.061712819597497 L 81.07991688878307,11.092445636272378 L 76.35962408819891,17.334948009259783 L 75.02853061184624,14.646418642261661 A 56.827401813299836 56.827401813299836 0 0 1 71.11918523935348,16.40164529830777"/><text text-anchor="middle" pointer-events="none" font-size="8px" fill="#000000" x="48.01559894036977" y="23.01771350784007" transform="rotate(180 48.01559894036977 20.01771350784007)" font-family="sans-serif">DIRECTED</text></g><g class="relationship" transform="translate(198.09673107836494 -288.91897109936616) rotate(196.00725951465074)"><path class="outline" fill="#A5ABB6" stroke="none" d="M 25 0.5 L 30.355445390217064 0.5 L 30.355445390217064 -0.5 L 25 -0.5 Z M 66.12888289021706 0.5 L 71.48432828043413 0.5 L 71.48432828043413 3.5 L 78.48432828043413 0 L 71.48432828043413 -3.5 L 71.48432828043413 -0.5 L 66.12888289021706 -0.5 Z"/><text text-anchor="middle" pointer-events="none" font-size="8px" fill="#000000" x="48.242164140217064" y="3" transform="rotate(180 48.242164140217064 0)" font-family="sans-serif">WROTE</text></g><g class="relationship" transform="translate(198.09673107836494 -288.91897109936616) rotate(196.00725951465074)"><path class="outline" fill="#A5ABB6" stroke="none" d="M 21.40063509461097,-12.933012701892217 L 21.90063509461097,-12.06698729810778 A 55.827401813299836 55.827401813299836 0 0 1 23.46250710958693,-12.935702003305856 L 22.990483908869102,-13.817288129548835 A 56.827401813299836 56.827401813299836 0 0 0 21.40063509461097,-12.933012701892217 Z M 73.3854769077254,-15.427403155251582 L 72.97069213569053,-14.517483602275625 A 55.827401813299836 55.827401813299836 0 0 1 74.58483278639534,-13.75024218659562 L 73.25373931004266,-11.061712819597497 L 81.07991688878307,-11.092445636272378 L 76.35962408819891,-17.334948009259783 L 75.02853061184624,-14.646418642261661 A 56.827401813299836 56.827401813299836 0 0 0 73.3854769077254,-15.427403155251582"/><text text-anchor="middle" pointer-events="none" font-size="8px" fill="#000000" x="48.01559894036976" y="-17.01771350784007" transform="rotate(180 48.01559894036976 -20.01771350784007)" font-family="sans-serif">PRODUCED</text></g><g class="relationship" transform="translate(-29.828108592093244 -222.0066767546913) rotate(200.5977675706652)"><path class="outline" fill="#A5ABB6" stroke="none" d="M 21.40063509461097,12.933012701892217 L 21.90063509461097,12.06698729810778 A 55.88917148856794 55.88917148856794 0 0 0 25.65124274155757,14.046602082525887 L 25.21835069014675,14.948047850071184 A 56.88917148856794 56.88917148856794 0 0 1 21.40063509461097,12.933012701892217 Z M 71.15009367887272,16.41476513775526 L 70.77559582132773,15.487537358461402 A 55.88917148856794 55.88917148856794 0 0 0 74.64486184298187,13.75124450594666 L 73.31367512056859,11.062761307176288 L 81.13985376051495,11.09322268677739 L 76.41977747286624,17.335888770973824 L 75.08859075045297,14.647405572203452 A 56.88917148856794 56.88917148856794 0 0 1 71.15009367887272,16.41476513775526"/><text text-anchor="middle" pointer-events="none" font-size="8px" fill="#000000" x="48.04548863015123" y="23.025988790866066" transform="rotate(180 48.04548863015123 20.025988790866066)" font-family="sans-serif">DIRECTED</text></g><g class="relationship" transform="translate(-29.828108592093244 -222.0066767546913) rotate(200.5977675706652)"><path class="outline" fill="#A5ABB6" stroke="none" d="M 25 0.5 L 30.38522145846737 0.5 L 30.38522145846737 -0.5 L 25 -0.5 Z M 66.15865895846737 0.5 L 71.54388041693474 0.5 L 71.54388041693474 3.5 L 78.54388041693474 0 L 71.54388041693474 -3.5 L 71.54388041693474 -0.5 L 66.15865895846737 -0.5 Z"/><text text-anchor="middle" pointer-events="none" font-size="8px" fill="#000000" x="48.27194020846737" y="3" transform="rotate(180 48.27194020846737 0)" font-family="sans-serif">WROTE</text></g><g class="relationship" transform="translate(-29.828108592093244 -222.0066767546913) rotate(200.5977675706652)"><path class="outline" fill="#A5ABB6" stroke="none" d="M 21.40063509461097,-12.933012701892217 L 21.90063509461097,-12.06698729810778 A 55.88917148856794 55.88917148856794 0 0 1 23.489901421341195,-12.950396905450987 L 23.01833745437588,-13.83222876304059 A 56.88917148856794 56.88917148856794 0 0 0 21.40063509461097,-12.933012701892217 Z M 73.41681412199956,-15.441580209152498 L 73.00247176709567,-14.531459111203056 A 55.88917148856794 55.88917148856794 0 0 1 74.64486184298187,-13.75124450594666 L 73.31367512056859,-11.062761307176288 L 81.13985376051495,-11.09322268677739 L 76.41977747286624,-17.335888770973824 L 75.08859075045297,-14.647405572203452 A 56.88917148856794 56.88917148856794 0 0 0 73.41681412199956,-15.441580209152498"/><text text-anchor="middle" pointer-events="none" font-size="8px" fill="#000000" x="48.04548863015123" y="-17.025988790866066" transform="rotate(180 48.04548863015123 -20.025988790866066)" font-family="sans-serif">PRODUCED</text></g><g class="relationship" transform="translate(-41.81532073409469 78.81456770682581) rotate(268.67524705345886)"><path class="outline" fill="#A5ABB6" stroke="none" d="M 21.40063509461097,12.933012701892217 L 21.90063509461097,12.06698729810778 A 58.46729110626783 58.46729110626783 0 0 0 31.937074946919857,16.65864997308286 L 31.608734000424956,17.603209247482745 A 59.46729110626783 59.46729110626783 0 0 1 21.40063509461097,12.933012701892217 Z M 67.11749665131231,18.711929837817955 L 66.84872341973858,17.74872635464869 A 58.46729110626783 58.46729110626783 0 0 0 77.15207226875403,13.792150369625112 L 75.81708011525814,11.105554763638901 L 83.64329404163783,11.12493461246574 L 78.93206180674855,17.374277844273394 L 77.59706965325266,14.68768223828718 A 59.46729110626783 59.46729110626783 0 0 1 67.11749665131231,18.711929837817955"/><text text-anchor="middle" pointer-events="none" font-size="8px" fill="#000000" x="49.293991135412654" y="23.37139554510056" transform="rotate(180 49.293991135412654 20.37139554510056)" font-family="sans-serif">WROTE</text></g><g class="relationship" transform="translate(-41.81532073409469 78.81456770682581) rotate(268.67524705345886)"><path class="outline" fill="#A5ABB6" stroke="none" d="M 25 0.5 L 26.070482879094797 0.5 L 26.070482879094797 -0.5 L 25 -0.5 Z M 72.9611078790948 0.5 L 74.0315907581896 0.5 L 74.0315907581896 3.5 L 81.0315907581896 0 L 74.0315907581896 -3.5 L 74.0315907581896 -0.5 L 72.9611078790948 -0.5 Z"/><text text-anchor="middle" pointer-events="none" font-size="8px" fill="#000000" x="49.5157953790948" y="3" transform="rotate(180 49.5157953790948 0)" font-family="sans-serif">DIRECTED</text></g><g class="relationship" transform="translate(-41.81532073409469 78.81456770682581) rotate(268.67524705345886)"><path class="outline" fill="#A5ABB6" stroke="none" d="M 21.40063509461097,-12.933012701892217 L 21.90063509461097,-12.06698729810778 A 58.46729110626783 58.46729110626783 0 0 1 24.640584753423582,-13.55296036498003 L 24.187447702039286,-14.44440122822489 A 59.46729110626783 59.46729110626783 0 0 0 21.40063509461097,-12.933012701892217 Z M 74.72139480727077,-16.02226605605157 L 74.32475467585171,-15.104291870059463 A 58.46729110626783 58.46729110626783 0 0 1 77.15207226875403,-13.792150369625112 L 75.81708011525814,-11.105554763638901 L 83.64329404163783,-11.12493461246574 L 78.93206180674855,-17.374277844273394 L 77.59706965325266,-14.68768223828718 A 59.46729110626783 59.46729110626783 0 0 0 74.72139480727077,-16.02226605605157"/><text text-anchor="middle" pointer-events="none" font-size="8px" fill="#000000" x="49.293991135412654" y="-17.37139554510056" transform="rotate(180 49.293991135412654 -20.37139554510056)" font-family="sans-serif">PRODUCED</text></g><g class="relationship" transform="translate(-231.92280435242122 -34.06639282169566) rotate(242.00630108896615)"><path class="outline" fill="#A5ABB6" stroke="none" d="M 21.40063509461097,12.933012701892217 L 21.90063509461097,12.06698729810778 A 55.044149587752486 55.044149587752486 0 0 0 23.11590297500302,12.748263522930714 L 22.637981032153395,13.626665831979835 A 56.044149587752486 56.044149587752486 0 0 1 21.40063509461097,12.933012701892217 Z M 72.98775424391677,15.246498855170366 L 72.56728137513798,14.3391937429722 A 55.044149587752486 55.044149587752486 0 0 0 73.82382639848001,13.737439706894346 L 72.49392394602634,11.048320991226008 L 80.32008714378173,11.082520437113853 L 75.59702966841823,17.32293132778546 L 74.26712721596456,14.633812612117126 A 56.044149587752486 56.044149587752486 0 0 1 72.98775424391677,15.246498855170366"/><text text-anchor="middle" pointer-events="none" font-size="8px" fill="#000000" x="47.63668947692718" y="22.912782871439646" transform="rotate(180 47.63668947692718 19.912782871439646)" font-family="sans-serif">PRODUCED</text></g><g class="relationship" transform="translate(-231.92280435242122 -34.06639282169566) rotate(242.00630108896615)"><path class="outline" fill="#A5ABB6" stroke="none" d="M 25 0.5 L 29.9779861371756 0.5 L 29.9779861371756 -0.5 L 25 -0.5 Z M 65.7514236371756 0.5 L 70.7294097743512 0.5 L 70.7294097743512 3.5 L 77.7294097743512 0 L 70.7294097743512 -3.5 L 70.7294097743512 -0.5 L 65.7514236371756 -0.5 Z"/><text text-anchor="middle" pointer-events="none" font-size="8px" fill="#000000" x="47.8647048871756" y="3" transform="rotate(180 47.8647048871756 0)" font-family="sans-serif">WROTE</text></g><g class="relationship" transform="translate(-231.92280435242122 -34.06639282169566) rotate(242.00630108896615)"><path class="outline" fill="#A5ABB6" stroke="none" d="M 21.40063509461097,-12.933012701892217 L 21.90063509461097,-12.06698729810778 A 55.044149587752486 55.044149587752486 0 0 1 25.2693373238342,-13.859189172161507 L 24.83053732882025,-14.757773928528849 A 56.044149587752486 56.044149587752486 0 0 0 21.40063509461097,-12.933012701892217 Z M 70.72702802275816,-16.23433770493188 L 70.3468934629338,-15.309406509422104 A 55.044149587752486 55.044149587752486 0 0 1 73.82382639848001,-13.737439706894346 L 72.49392394602634,-11.048320991226008 L 80.32008714378173,-11.082520437113853 L 75.59702966841823,-17.32293132778546 L 74.26712721596456,-14.633812612117126 A 56.044149587752486 56.044149587752486 0 0 0 70.72702802275816,-16.23433770493188"/><text text-anchor="middle" pointer-events="none" font-size="8px" fill="#000000" x="47.63668947692718" y="-16.912782871439646" transform="rotate(180 47.63668947692718 -19.912782871439646)" font-family="sans-serif">DIRECTED</text></g><g class="relationship" transform="translate(-220.43161605985563 154.5083269771177) rotate(533.3969076939403)"><path class="outline" fill="#A5ABB6" stroke="none" d="M 24.018736134675446,-6.953439040707552 L 24.277555179777966,-5.987513214418485 A 102.43002666915427 102.43002666915427 0 0 1 31.450390387998112,-7.635735511506894 L 31.26159802785769,-8.617752540255694 A 103.43002666915427 103.43002666915427 0 0 0 24.018736134675446,-6.953439040707552 Z M 67.02349396691983,-9.195598041578492 L 66.86652700463975,-8.207994187418052 A 102.43002666915427 102.43002666915427 0 0 1 74.08886823703386,-6.792371078055352 L 73.40643734867201,-3.8710206912291407 L 81.01909095435533,-5.686924069682071 L 74.99877608818299,-10.687504927156967 L 74.31634519982114,-7.766154540330756 A 103.43002666915427 103.43002666915427 0 0 0 67.02349396691983,-9.195598041578492"/><text text-anchor="middle" pointer-events="none" font-size="8px" fill="#000000" x="49.1254567944104" y="-6.964297608984381" transform="rotate(180 49.1254567944104 -9.964297608984381)" font-family="sans-serif">WROTE</text></g><g class="relationship" transform="translate(-220.43161605985563 154.5083269771177) rotate(533.3969076939403)"><path class="outline" fill="#A5ABB6" stroke="none" d="M 24.018736134675446,6.953439040707552 L 24.277555179777966,5.987513214418485 A 102.43002666915427 102.43002666915427 0 0 0 26.04910462145907,6.445279395657295 L 25.807580792410754,7.415674284350459 A 103.43002666915427 103.43002666915427 0 0 1 24.018736134675446,6.953439040707552 Z M 72.51350056145142,8.170354787578603 L 72.30345417174266,7.1926633668479525 A 102.43002666915427 102.43002666915427 0 0 0 74.08886823703386,6.792371078055352 L 73.40643734867201,3.8710206912291407 L 81.01909095435533,5.686924069682071 L 74.99877608818299,10.687504927156967 L 74.31634519982114,7.766154540330756 A 103.43002666915427 103.43002666915427 0 0 1 72.51350056145142,8.170354787578603"/><text text-anchor="middle" pointer-events="none" font-size="8px" fill="#000000" x="49.12545679441041" y="12.964297608984381" transform="rotate(180 49.12545679441041 9.964297608984381)" font-family="sans-serif">DIRECTED</text></g><g class="relationship" transform="translate(-293.1016743427421 271.02736769848303) rotate(252.9621472111766)"><path class="outline" fill="#A5ABB6" stroke="none" d="M 24.018736134675446,-6.953439040707552 L 24.277555179777966,-5.987513214418485 A 110.08952811018732 110.08952811018732 0 0 1 27.927434863342246,-6.898951586915459 L 27.701769559074286,-7.87315647832672 A 111.08952811018732 111.08952811018732 0 0 0 24.018736134675446,-6.953439040707552 Z M 74.44664434353082,-8.60350619382612 L 74.2515240383929,-7.622726877913053 A 110.08952811018732 110.08952811018732 0 0 1 77.9280961583353,-6.825758209634671 L 77.24254663689183,-3.9051380950616292 L 84.8571346792463,-5.712912678695451 L 78.84216218692657,-10.719918362398728 L 78.15661266548311,-7.799298247825686 A 111.08952811018732 111.08952811018732 0 0 0 74.44664434353082,-8.60350619382612"/><text text-anchor="middle" pointer-events="none" font-size="8px" fill="#000000" x="51.04316336020115" y="-7.225227131472963" transform="rotate(180 51.04316336020115 -10.225227131472963)" font-family="sans-serif">DIRECTED</text></g><g class="relationship" transform="translate(-293.1016743427421 271.02736769848303) rotate(252.9621472111766)"><path class="outline" fill="#A5ABB6" stroke="none" d="M 24.018736134675446,6.953439040707552 L 24.277555179777966,5.987513214418485 A 110.08952811018732 110.08952811018732 0 0 0 33.347266686110984,8.011686978975291 L 33.17083251141371,8.995999420224962 A 111.08952811018732 111.08952811018732 0 0 1 24.018736134675446,6.953439040707552 Z M 68.94517248816027,9.554943671218723 L 68.79957504938932,8.565599754361017 A 110.08952811018732 110.08952811018732 0 0 0 77.9280961583353,6.825758209634671 L 77.24254663689183,3.9051380950616292 L 84.8571346792463,5.712912678695451 L 78.84216218692657,10.719918362398728 L 78.15661266548311,7.799298247825686 A 111.08952811018732 111.08952811018732 0 0 1 68.94517248816027,9.554943671218723"/><text text-anchor="middle" pointer-events="none" font-size="8px" fill="#000000" x="51.04316336020119" y="13.225227131472963" transform="rotate(180 51.04316336020119 10.225227131472963)" font-family="sans-serif">WROTE</text></g><g class="relationship" transform="translate(-106.9887149567869 467.7536589674796) rotate(383.54338612366666)"><path class="outline" fill="#A5ABB6" stroke="none" d="M 21.40063509461097,12.933012701892217 L 21.90063509461097,12.06698729810778 A 60.0648626563194 60.0648626563194 0 0 0 25.360217008447126,13.916454757617139 L 24.91781444163583,14.81327133244099 A 61.0648626563194 61.0648626563194 0 0 1 21.40063509461097,12.933012701892217 Z M 75.5268773602334,16.372017007512625 L 75.14050441331872,15.449674367333579 A 60.0648626563194 60.0648626563194 0 0 0 78.70734710638426,13.816618916575344 L 77.37007871853439,11.131155593635077 L 85.19630625788653,11.143903232082334 L 80.49037162351743,17.397236680495702 L 79.15310323566756,14.711773357555433 A 61.0648626563194 61.0648626563194 0 0 1 75.5268773602334,16.372017007512625"/><text text-anchor="middle" pointer-events="none" font-size="8px" fill="#000000" x="50.06856890773421" y="23.585446811725674" font-family="sans-serif">PRODUCED</text></g><g class="relationship" transform="translate(-106.9887149567869 467.7536589674796) rotate(383.54338612366666)"><path class="outline" fill="#A5ABB6" stroke="none" d="M 25 0.5 L 32.400864891194374 0.5 L 32.400864891194374 -0.5 L 25 -0.5 Z M 68.17430239119437 0.5 L 75.57516728238875 0.5 L 75.57516728238875 3.5 L 82.57516728238875 0 L 75.57516728238875 -3.5 L 75.57516728238875 -0.5 L 68.17430239119437 -0.5 Z"/><text text-anchor="middle" pointer-events="none" font-size="8px" fill="#000000" x="50.287583641194374" y="3" font-family="sans-serif">WROTE</text></g><g class="relationship" transform="translate(-106.9887149567869 467.7536589674796) rotate(383.54338612366666)"><path class="outline" fill="#A5ABB6" stroke="none" d="M 21.40063509461097,-12.933012701892217 L 21.90063509461097,-12.06698729810778 A 60.0648626563194 60.0648626563194 0 0 1 27.55617431513736,-14.945145006913208 L 27.150331514045586,-15.859087904911753 A 61.0648626563194 61.0648626563194 0 0 0 21.40063509461097,-12.933012701892217 Z M 73.2342312200457,-17.27845975680127 L 72.88540271424588,-16.341273183305113 A 60.0648626563194 60.0648626563194 0 0 1 78.70734710638426,-13.816618916575344 L 77.37007871853439,-11.131155593635077 L 85.19630625788653,-11.143903232082334 L 80.49037162351743,-17.397236680495702 L 79.15310323566756,-14.711773357555433 A 61.0648626563194 61.0648626563194 0 0 0 73.2342312200457,-17.27845975680127"/><text text-anchor="middle" pointer-events="none" font-size="8px" fill="#000000" x="50.0685689077342" y="-17.585446811725674" font-family="sans-serif">DIRECTED</text></g><g class="relationship" transform="translate(-51.78102478100271 280.9402465840417) rotate(398.11423201582784)"><path class="outline" fill="#A5ABB6" stroke="none" d="M 21.40063509461097,12.933012701892217 L 21.90063509461097,12.06698729810778 A 56.947034666406864 56.947034666406864 0 0 0 23.960365245621286,13.20014303149788 L 23.496534471342628,14.08606685036272 A 57.947034666406864 57.947034666406864 0 0 1 21.40063509461097,12.933012701892217 Z M 73.95288283071264,15.682406814136336 L 73.54598141567669,14.768934735503535 A 56.947034666406864 56.947034666406864 0 0 0 75.67322220559622,13.768246555899943 L 74.34045378704822,11.080547104227367 L 82.16664899592355,11.10640348790003 L 77.45024676366022,17.35184582479671 L 76.11747834511222,14.664146373124133 A 57.947034666406864 57.947034666406864 0 0 1 73.95288283071264,15.682406814136336"/><text text-anchor="middle" pointer-events="none" font-size="8px" fill="#000000" x="48.5575498025091" y="23.167713587579556" font-family="sans-serif">PRODUCED</text></g><g class="relationship" transform="translate(-51.78102478100271 280.9402465840417) rotate(398.11423201582784)"><path class="outline" fill="#A5ABB6" stroke="none" d="M 25 0.5 L 25.336759713264172 0.5 L 25.336759713264172 -0.5 L 25 -0.5 Z M 72.22738471326417 0.5 L 72.56414442652834 0.5 L 72.56414442652834 3.5 L 79.56414442652834 0 L 72.56414442652834 -3.5 L 72.56414442652834 -0.5 L 72.22738471326417 -0.5 Z"/><text text-anchor="middle" pointer-events="none" font-size="8px" fill="#000000" x="48.78207221326417" y="3" font-family="sans-serif">DIRECTED</text></g><g class="relationship" transform="translate(-51.78102478100271 280.9402465840417) rotate(398.11423201582784)"><path class="outline" fill="#A5ABB6" stroke="none" d="M 21.40063509461097,-12.933012701892217 L 21.90063509461097,-12.06698729810778 A 56.947034666406864 56.947034666406864 0 0 1 31.22273742286679,-16.379512658590663 L 30.886435188393378,-17.321266770388533 A 57.947034666406864 57.947034666406864 0 0 0 21.40063509461097,-12.933012701892217 Z M 66.37325532755345,-18.444000202699385 L 66.09715659373828,-17.482870924617785 A 56.947034666406864 56.947034666406864 0 0 1 75.67322220559622,-13.768246555899943 L 74.34045378704822,-11.080547104227367 L 82.16664899592355,-11.10640348790003 L 77.45024676366022,-17.35184582479671 L 76.11747834511222,-14.664146373124133 A 57.947034666406864 57.947034666406864 0 0 0 66.37325532755345,-18.444000202699385"/><text text-anchor="middle" pointer-events="none" font-size="8px" fill="#000000" x="48.557549802509094" y="-17.167713587579556" font-family="sans-serif">WROTE</text></g></g><g class="layer nodes"><g class="node" transform="translate(196.11472249774752,231.9620522356601)"><circle class="outline" cx="0" cy="0" r="25" fill="#F79767" stroke="#f36924" stroke-width="2px"/><text text-anchor="middle" pointer-events="none" font-family="sans-serif" dy="1.5625" font-size="25" fill="#FFFFFF"/><text text-anchor="middle" pointer-events="none" font-family="sans-serif" dy="1.5625" font-size="25" fill="#FFFFFF"/><text text-anchor="middle" pointer-events="none" y="0" font-size="10px" fill="#FFFFFF" font-family="sans-serif"> Lilly</text><text text-anchor="middle" pointer-events="none" y="10" font-size="10px" fill="#FFFFFF" font-family="sans-serif"> Wacho…</text></g><g class="node" transform="translate(301.15079061270234,257.48497650614655)"><circle class="outline" cx="0" cy="0" r="25" fill="#57C7E3" stroke="#23b3d7" stroke-width="2px"/><text text-anchor="middle" pointer-events="none" font-family="sans-serif" dy="1.5625" font-size="25" fill="#FFFFFF"/><text text-anchor="middle" pointer-events="none" font-family="sans-serif" dy="1.5625" font-size="25" fill="#FFFFFF"/><text text-anchor="middle" pointer-events="none" y="0" font-size="10px" fill="#FFFFFF" font-family="sans-serif"> Speed</text><text text-anchor="middle" pointer-events="none" y="10" font-size="10px" fill="#FFFFFF" font-family="sans-serif"> Racer</text></g><g class="node" transform="translate(233.12185124127066,344.42354132584825)"><circle class="outline" cx="0" cy="0" r="25" fill="#F79767" stroke="#f36924" stroke-width="2px"/><text text-anchor="middle" pointer-events="none" font-family="sans-serif" dy="1.5625" font-size="25" fill="#FFFFFF"/><text text-anchor="middle" pointer-events="none" font-family="sans-serif" dy="1.5625" font-size="25" fill="#FFFFFF"/><text text-anchor="middle" pointer-events="none" y="0" font-size="10px" fill="#FFFFFF" font-family="sans-serif"> Lana</text><text text-anchor="middle" pointer-events="none" y="10" font-size="10px" fill="#FFFFFF" font-family="sans-serif"> Wacho…</text></g><g class="node" transform="translate(393.0929554481594,426.6670465384942)"><circle class="outline" cx="0" cy="0" r="25" fill="#F79767" stroke="#f36924" stroke-width="2px"/><text text-anchor="middle" pointer-events="none" font-family="sans-serif" dy="1.5625" font-size="25" fill="#FFFFFF"/><text text-anchor="middle" pointer-events="none" font-family="sans-serif" dy="1.5625" font-size="25" fill="#FFFFFF"/><text text-anchor="middle" pointer-events="none" y="0" font-size="10px" fill="#FFFFFF" font-family="sans-serif"> Cameron</text><text text-anchor="middle" pointer-events="none" y="10" font-size="10px" fill="#FFFFFF" font-family="sans-serif"> Crowe</text></g><g class="node" transform="translate(304.6974975020119,488.9640749610244)"><circle class="outline" cx="0" cy="0" r="25" fill="#57C7E3" stroke="#23b3d7" stroke-width="2px"/><text text-anchor="middle" pointer-events="none" font-family="sans-serif" dy="1.5625" font-size="25" fill="#FFFFFF"/><text text-anchor="middle" pointer-events="none" font-family="sans-serif" dy="1.5625" font-size="25" fill="#FFFFFF"/><text text-anchor="middle" pointer-events="none" y="0" font-size="10px" fill="#FFFFFF" font-family="sans-serif"> Jerry</text><text text-anchor="middle" pointer-events="none" y="10" font-size="10px" fill="#FFFFFF" font-family="sans-serif"> Maguire</text></g><g class="node" transform="translate(485.2869872399716,208.94701904877144)"><circle class="outline" cx="0" cy="0" r="25" fill="#F79767" stroke="#f36924" stroke-width="2px"/><text text-anchor="middle" pointer-events="none" font-family="sans-serif" dy="1.5625" font-size="25" fill="#FFFFFF"/><text text-anchor="middle" pointer-events="none" font-family="sans-serif" dy="1.5625" font-size="25" fill="#FFFFFF"/><text text-anchor="middle" pointer-events="none" y="0" font-size="10px" fill="#FFFFFF" font-family="sans-serif"> Nancy</text><text text-anchor="middle" pointer-events="none" y="10" font-size="10px" fill="#FFFFFF" font-family="sans-serif"> Meyers</text></g><g class="node" transform="translate(507.51867628354984,107.36218647360616)"><circle class="outline" cx="0" cy="0" r="25" fill="#57C7E3" stroke="#23b3d7" stroke-width="2px"/><text text-anchor="middle" pointer-events="none" font-family="sans-serif" dy="1.5625" font-size="25" fill="#FFFFFF"/><text text-anchor="middle" pointer-events="none" y="5" font-size="10px" fill="#FFFFFF" font-family="sans-serif"> Somethi…</text></g><g class="node" transform="translate(148.022990620803,-48.846156210198835)"><circle class="outline" cx="0" cy="0" r="25" fill="#F79767" stroke="#f36924" stroke-width="2px"/><text text-anchor="middle" pointer-events="none" font-family="sans-serif" dy="1.5625" font-size="25" fill="#FFFFFF"/><text text-anchor="middle" pointer-events="none" font-family="sans-serif" dy="1.5625" font-size="25" fill="#FFFFFF"/><text text-anchor="middle" pointer-events="none" y="0" font-size="10px" fill="#FFFFFF" font-family="sans-serif"> Lilly</text><text text-anchor="middle" pointer-events="none" y="10" font-size="10px" fill="#FFFFFF" font-family="sans-serif"> Wacho…</text></g><g class="node" transform="translate(148.45809421465222,58.618094249116496)"><circle class="outline" cx="0" cy="0" r="25" fill="#57C7E3" stroke="#23b3d7" stroke-width="2px"/><text text-anchor="middle" pointer-events="none" font-family="sans-serif" dy="1.5625" font-size="25" fill="#FFFFFF"/><text text-anchor="middle" pointer-events="none" font-family="sans-serif" dy="1.5625" font-size="25" fill="#FFFFFF"/><text text-anchor="middle" pointer-events="none" y="0" font-size="10px" fill="#FFFFFF" font-family="sans-serif"> Speed</text><text text-anchor="middle" pointer-events="none" y="10" font-size="10px" fill="#FFFFFF" font-family="sans-serif"> Racer</text></g><g class="node" transform="translate(256.6082544011066,56.737765169366206)"><circle class="outline" cx="0" cy="0" r="25" fill="#F79767" stroke="#f36924" stroke-width="2px"/><text text-anchor="middle" pointer-events="none" font-family="sans-serif" dy="1.5625" font-size="25" fill="#FFFFFF"/><text text-anchor="middle" pointer-events="none" font-family="sans-serif" dy="1.5625" font-size="25" fill="#FFFFFF"/><text text-anchor="middle" pointer-events="none" y="0" font-size="10px" fill="#FFFFFF" font-family="sans-serif"> Lana</text><text text-anchor="middle" pointer-events="none" y="10" font-size="10px" fill="#FFFFFF" font-family="sans-serif"> Wacho…</text></g><g class="node" transform="translate(466.7396486153633,-78.37896440270042)"><circle class="outline" cx="0" cy="0" r="25" fill="#F79767" stroke="#f36924" stroke-width="2px"/><text text-anchor="middle" pointer-events="none" font-family="sans-serif" dy="1.5625" font-size="25" fill="#FFFFFF"/><text text-anchor="middle" pointer-events="none" font-family="sans-serif" dy="1.5625" font-size="25" fill="#FFFFFF"/><text text-anchor="middle" pointer-events="none" y="0" font-size="10px" fill="#FFFFFF" font-family="sans-serif"> Lilly</text><text text-anchor="middle" pointer-events="none" y="10" font-size="10px" fill="#FFFFFF" font-family="sans-serif"> Wacho…</text></g><g class="node" transform="translate(432.3186705098445,-179.44983290845502)"><circle class="outline" cx="0" cy="0" r="25" fill="#57C7E3" stroke="#23b3d7" stroke-width="2px"/><text text-anchor="middle" pointer-events="none" font-family="sans-serif" dy="1.5625" font-size="25" fill="#FFFFFF"/><text text-anchor="middle" pointer-events="none" font-family="sans-serif" dy="1.5625" font-size="25" fill="#FFFFFF"/><text text-anchor="middle" pointer-events="none" y="0" font-size="10px" fill="#FFFFFF" font-family="sans-serif"> Speed</text><text text-anchor="middle" pointer-events="none" y="10" font-size="10px" fill="#FFFFFF" font-family="sans-serif"> Racer</text></g><g class="node" transform="translate(327.65473218551784,-177.5858708680969)"><circle class="outline" cx="0" cy="0" r="25" fill="#F79767" stroke="#f36924" stroke-width="2px"/><text text-anchor="middle" pointer-events="none" font-family="sans-serif" dy="1.5625" font-size="25" fill="#FFFFFF"/><text text-anchor="middle" pointer-events="none" font-family="sans-serif" dy="1.5625" font-size="25" fill="#FFFFFF"/><text text-anchor="middle" pointer-events="none" y="0" font-size="10px" fill="#FFFFFF" font-family="sans-serif"> Lana</text><text text-anchor="middle" pointer-events="none" y="10" font-size="10px" fill="#FFFFFF" font-family="sans-serif"> Wacho…</text></g><g class="node" transform="translate(198.09673107836494,-288.91897109936616)"><circle class="outline" cx="0" cy="0" r="25" fill="#F79767" stroke="#f36924" stroke-width="2px"/><text text-anchor="middle" pointer-events="none" font-family="sans-serif" dy="1.5625" font-size="25" fill="#FFFFFF"/><text text-anchor="middle" pointer-events="none" font-family="sans-serif" dy="1.5625" font-size="25" fill="#FFFFFF"/><text text-anchor="middle" pointer-events="none" y="0" font-size="10px" fill="#FFFFFF" font-family="sans-serif"> Cameron</text><text text-anchor="middle" pointer-events="none" y="10" font-size="10px" fill="#FFFFFF" font-family="sans-serif"> Crowe</text></g><g class="node" transform="translate(98.62482504970129,-317.4557212765914)"><circle class="outline" cx="0" cy="0" r="25" fill="#57C7E3" stroke="#23b3d7" stroke-width="2px"/><text text-anchor="middle" pointer-events="none" font-family="sans-serif" dy="1.5625" font-size="25" fill="#FFFFFF"/><text text-anchor="middle" pointer-events="none" font-family="sans-serif" dy="1.5625" font-size="25" fill="#FFFFFF"/><text text-anchor="middle" pointer-events="none" y="0" font-size="10px" fill="#FFFFFF" font-family="sans-serif"> Jerry</text><text text-anchor="middle" pointer-events="none" y="10" font-size="10px" fill="#FFFFFF" font-family="sans-serif"> Maguire</text></g><g class="node" transform="translate(-29.828108592093244,-222.0066767546913)"><circle class="outline" cx="0" cy="0" r="25" fill="#F79767" stroke="#f36924" stroke-width="2px"/><text text-anchor="middle" pointer-events="none" font-family="sans-serif" dy="1.5625" font-size="25" fill="#FFFFFF"/><text text-anchor="middle" pointer-events="none" font-family="sans-serif" dy="1.5625" font-size="25" fill="#FFFFFF"/><text text-anchor="middle" pointer-events="none" y="0" font-size="10px" fill="#FFFFFF" font-family="sans-serif"> Nancy</text><text text-anchor="middle" pointer-events="none" y="10" font-size="10px" fill="#FFFFFF" font-family="sans-serif"> Meyers</text></g><g class="node" transform="translate(-126.75276462201764,-258.4339498516076)"><circle class="outline" cx="0" cy="0" r="25" fill="#57C7E3" stroke="#23b3d7" stroke-width="2px"/><text text-anchor="middle" pointer-events="none" font-family="sans-serif" dy="1.5625" font-size="25" fill="#FFFFFF"/><text text-anchor="middle" pointer-events="none" y="5" font-size="10px" fill="#FFFFFF" font-family="sans-serif"> Somethi…</text></g><g class="node" transform="translate(-41.81532073409469,78.81456770682581)"><circle class="outline" cx="0" cy="0" r="25" fill="#F79767" stroke="#f36924" stroke-width="2px"/><text text-anchor="middle" pointer-events="none" font-family="sans-serif" dy="1.5625" font-size="25" fill="#FFFFFF"/><text text-anchor="middle" pointer-events="none" font-family="sans-serif" dy="1.5625" font-size="25" fill="#FFFFFF"/><text text-anchor="middle" pointer-events="none" y="0" font-size="10px" fill="#FFFFFF" font-family="sans-serif"> Cameron</text><text text-anchor="middle" pointer-events="none" y="10" font-size="10px" fill="#FFFFFF" font-family="sans-serif"> Crowe</text></g><g class="node" transform="translate(-44.26669059848401,-27.188682358915848)"><circle class="outline" cx="0" cy="0" r="25" fill="#57C7E3" stroke="#23b3d7" stroke-width="2px"/><text text-anchor="middle" pointer-events="none" font-family="sans-serif" dy="1.5625" font-size="25" fill="#FFFFFF"/><text text-anchor="middle" pointer-events="none" font-family="sans-serif" dy="1.5625" font-size="25" fill="#FFFFFF"/><text text-anchor="middle" pointer-events="none" y="0" font-size="10px" fill="#FFFFFF" font-family="sans-serif"> Jerry</text><text text-anchor="middle" pointer-events="none" y="10" font-size="10px" fill="#FFFFFF" font-family="sans-serif"> Maguire</text></g><g class="node" transform="translate(-231.92280435242122,-34.06639282169566)"><circle class="outline" cx="0" cy="0" r="25" fill="#F79767" stroke="#f36924" stroke-width="2px"/><text text-anchor="middle" pointer-events="none" font-family="sans-serif" dy="1.5625" font-size="25" fill="#FFFFFF"/><text text-anchor="middle" pointer-events="none" font-family="sans-serif" dy="1.5625" font-size="25" fill="#FFFFFF"/><text text-anchor="middle" pointer-events="none" y="0" font-size="10px" fill="#FFFFFF" font-family="sans-serif"> Nancy</text><text text-anchor="middle" pointer-events="none" y="10" font-size="10px" fill="#FFFFFF" font-family="sans-serif"> Meyers</text></g><g class="node" transform="translate(-280.1413653866623,-124.77638127045323)"><circle class="outline" cx="0" cy="0" r="25" fill="#57C7E3" stroke="#23b3d7" stroke-width="2px"/><text text-anchor="middle" pointer-events="none" font-family="sans-serif" dy="1.5625" font-size="25" fill="#FFFFFF"/><text text-anchor="middle" pointer-events="none" y="5" font-size="10px" fill="#FFFFFF" font-family="sans-serif"> Somethi…</text></g><g class="node" transform="translate(-220.43161605985563,154.5083269771177)"><circle class="outline" cx="0" cy="0" r="25" fill="#F79767" stroke="#f36924" stroke-width="2px"/><text text-anchor="middle" pointer-events="none" font-family="sans-serif" dy="1.5625" font-size="25" fill="#FFFFFF"/><text text-anchor="middle" pointer-events="none" font-family="sans-serif" dy="1.5625" font-size="25" fill="#FFFFFF"/><text text-anchor="middle" pointer-events="none" y="0" font-size="10px" fill="#FFFFFF" font-family="sans-serif"> Lilly</text><text text-anchor="middle" pointer-events="none" y="10" font-size="10px" fill="#FFFFFF" font-family="sans-serif"> Wacho…</text></g><g class="node" transform="translate(-325.0963700318786,166.6241767066481)"><circle class="outline" cx="0" cy="0" r="25" fill="#57C7E3" stroke="#23b3d7" stroke-width="2px"/><text text-anchor="middle" pointer-events="none" font-family="sans-serif" dy="1.5625" font-size="25" fill="#FFFFFF"/><text text-anchor="middle" pointer-events="none" font-family="sans-serif" dy="1.5625" font-size="25" fill="#FFFFFF"/><text text-anchor="middle" pointer-events="none" y="0" font-size="10px" fill="#FFFFFF" font-family="sans-serif"> Speed</text><text text-anchor="middle" pointer-events="none" y="10" font-size="10px" fill="#FFFFFF" font-family="sans-serif"> Racer</text></g><g class="node" transform="translate(-293.1016743427421,271.02736769848303)"><circle class="outline" cx="0" cy="0" r="25" fill="#F79767" stroke="#f36924" stroke-width="2px"/><text text-anchor="middle" pointer-events="none" font-family="sans-serif" dy="1.5625" font-size="25" fill="#FFFFFF"/><text text-anchor="middle" pointer-events="none" font-family="sans-serif" dy="1.5625" font-size="25" fill="#FFFFFF"/><text text-anchor="middle" pointer-events="none" y="0" font-size="10px" fill="#FFFFFF" font-family="sans-serif"> Lana</text><text text-anchor="middle" pointer-events="none" y="10" font-size="10px" fill="#FFFFFF" font-family="sans-serif"> Wacho…</text></g><g class="node" transform="translate(-106.9887149567869,467.7536589674796)"><circle class="outline" cx="0" cy="0" r="25" fill="#F79767" stroke="#f36924" stroke-width="2px"/><text text-anchor="middle" pointer-events="none" font-family="sans-serif" dy="1.5625" font-size="25" fill="#FFFFFF"/><text text-anchor="middle" pointer-events="none" font-family="sans-serif" dy="1.5625" font-size="25" fill="#FFFFFF"/><text text-anchor="middle" pointer-events="none" y="0" font-size="10px" fill="#FFFFFF" font-family="sans-serif"> Cameron</text><text text-anchor="middle" pointer-events="none" y="10" font-size="10px" fill="#FFFFFF" font-family="sans-serif"> Crowe</text></g><g class="node" transform="translate(-8.368334115553463,510.7238474539641)"><circle class="outline" cx="0" cy="0" r="25" fill="#57C7E3" stroke="#23b3d7" stroke-width="2px"/><text text-anchor="middle" pointer-events="none" font-family="sans-serif" dy="1.5625" font-size="25" fill="#FFFFFF"/><text text-anchor="middle" pointer-events="none" font-family="sans-serif" dy="1.5625" font-size="25" fill="#FFFFFF"/><text text-anchor="middle" pointer-events="none" y="0" font-size="10px" fill="#FFFFFF" font-family="sans-serif"> Jerry</text><text text-anchor="middle" pointer-events="none" y="10" font-size="10px" fill="#FFFFFF" font-family="sans-serif"> Maguire</text></g><g class="node" transform="translate(-51.78102478100271,280.9402465840417)"><circle class="outline" cx="0" cy="0" r="25" fill="#F79767" stroke="#f36924" stroke-width="2px"/><text text-anchor="middle" pointer-events="none" font-family="sans-serif" dy="1.5625" font-size="25" fill="#FFFFFF"/><text text-anchor="middle" pointer-events="none" font-family="sans-serif" dy="1.5625" font-size="25" fill="#FFFFFF"/><text text-anchor="middle" pointer-events="none" y="0" font-size="10px" fill="#FFFFFF" font-family="sans-serif"> Nancy</text><text text-anchor="middle" pointer-events="none" y="10" font-size="10px" fill="#FFFFFF" font-family="sans-serif"> Meyers</text></g><g class="node" transform="translate(30.488133533998543,345.4805122311022)"><circle class="outline" cx="0" cy="0" r="25" fill="#57C7E3" stroke="#23b3d7" stroke-width="2px"/><text text-anchor="middle" pointer-events="none" font-family="sans-serif" dy="1.5625" font-size="25" fill="#FFFFFF"/><text text-anchor="middle" pointer-events="none" y="5" font-size="10px" fill="#FFFFFF" font-family="sans-serif"> Somethi…</text></g></g></svg>