<svg xmlns="http://www.w3.org/2000/svg" width="201.71783447265625" height="214.20986938476562" viewBox="24.254714965820312 -22.454818725585938 201.71783447265625 214.20986938476562"><title>Neo4j Graph Visualization</title><desc>Created using Neo4j (http://www.neo4j.com/)</desc><g class="layer relationships"><g class="relationship" transform="translate(158.69583094776996 59.35606422438126) rotate(463.3732612848921)"><path class="outline" fill="#A5ABB6" stroke="none" d="M 5.987513214418485,-24.277555179777966 L 6.953439040707552,-24.018736134675446 A 45.87300103208263 45.87300103208263 0 0 1 14.627061500250313,-39.7523455164826 L 13.828415387232582,-40.35414646875974 A 46.87300103208263 46.87300103208263 0 0 0 5.987513214418485,-24.277555179777966 Z M 84.89124150367718,-44.79931411482828 L 84.17381600720259,-44.10267887526012 A 45.87300103208263 45.87300103208263 0 0 1 93.74830719949978,-29.447984602109564 L 90.96987866136213,-28.31646577395764 L 96.85158922154388,-23.153571151147048 L 97.4528785836833,-30.956676372978798 L 94.67445004554565,-29.825157544826872 A 46.87300103208263 46.87300103208263 0 0 0 84.89124150367718,-44.79931411482828"/><text text-anchor="middle" pointer-events="none" font-size="8px" fill="#000000" x="48.368260136563165" y="-55.42847131210617" transform="rotate(180 48.368260136563165 -58.42847131210617)" font-family="sans-serif">CHEAPEST_FLIGHT</text></g><g class="relationship" transform="translate(53.254716679487025 46.011652994138885) rotate(367.2128900784745)"><path class="outline" fill="#A5ABB6" stroke="none" d="M 5.987513214418485,24.277555179777966 L 6.953439040707552,24.018736134675446 A 45.87368042021123 45.87368042021123 0 0 0 14.62754419003992,39.75306828065377 L 13.828906121764511,40.354879908907435 A 46.87368042021123 46.87368042021123 0 0 1 5.987513214418485,24.277555179777966 Z M 84.8919963676267,44.80001194496797 L 84.17457916546465,44.10336816365504 A 45.87368042021123 45.87368042021123 0 0 0 93.74961793551469,29.4480029182913 L 90.97118774368238,28.3164881507718 L 96.85289075836558,23.153584931935843 L 97.45419152462443,30.95668927498397 L 94.67576133279212,29.825174507464467 A 46.87368042021123 46.87368042021123 0 0 1 84.8919963676267,44.80001194496797"/><text text-anchor="middle" pointer-events="none" font-size="8px" fill="#000000" x="48.36890778159165" y="61.4289756519574" font-family="sans-serif">CHEAPEST_FLIGHT</text></g><g class="relationship" transform="translate(158.69583094776996 59.35606422438126) rotate(463.3732612848921)"><path class="outline" fill="#A5ABB6" stroke="none" d="M 8.594947022451143,-23.48141575121181 L 9.526954891733942,-23.11897771292811 A 44.781167574651874 44.781167574651874 0 0 1 15.014272804170957,-33.182247157726565 L 14.204801219885404,-33.769406211334896 A 45.781167574651874 45.781167574651874 0 0 0 8.594947022451143,-23.48141575121181 Z M 84.84477967976844,-38.004543774684485 L 84.11125919543329,-37.324876430272 A 44.781167574651874 44.781167574651874 0 0 1 90.76161188668476,-27.989306877602452 L 88.11552703278774,-26.575717493807858 L 94.50100125785498,-22.050707115808503 L 94.28972502521411,-29.874092722661914 L 91.64364017131709,-28.46050333886732 A 45.781167574651874 45.781167574651874 0 0 0 84.84477967976844,-38.004543774684485"/><text text-anchor="middle" pointer-events="none" font-size="8px" fill="#000000" x="48.55344182185033" y="-49.08858477095393" transform="rotate(180 48.55344182185033 -52.08858477095393)" font-family="sans-serif">CHEAPEST_FLIGHT</text></g><g class="relationship" transform="translate(158.69583094776996 59.35606422438126) rotate(463.3732612848921)"><path class="outline" fill="#A5ABB6" stroke="none" d="M 11.10020991428674,-22.406145136073057 L 11.987220747464963,-21.944396522838026 A 44.27920522547292 44.27920522547292 0 0 1 15.248327597386165,-27.258305545634535 L 14.434965485618264,-27.84006329172861 A 45.27920522547292 45.27920522547292 0 0 0 11.10020991428674,-22.406145136073057 Z M 84.8783257293668,-31.833996014164022 L 84.13593261325542,-31.164031491856736 A 44.27920522547292 44.27920522547292 0 0 1 87.9767760605689,-26.2527823022523 L 85.48937229575603,-24.575635167742405 L 92.3046866685608,-20.728364706773917 L 91.29331441365272,-28.488978481598828 L 88.80591064883986,-26.811831347088933 A 45.27920522547292 45.27920522547292 0 0 0 84.8783257293668,-31.833996014164022"/><text text-anchor="middle" pointer-events="none" font-size="8px" fill="#000000" x="48.7285761846696" y="-43.20594050511969" transform="rotate(180 48.7285761846696 -46.20594050511969)" font-family="sans-serif">CHEAPEST_FLIGHT</text></g><g class="relationship" transform="translate(158.69583094776996 59.35606422438126) rotate(187.21289007847452)"><path class="outline" fill="#A5ABB6" stroke="none" d="M 12.698856172145504,-21.540405101092272 L 13.549972844582506,-21.015428520757713 A 44.311244371411284 44.311244371411284 0 0 1 15.304173100390294,-23.644690685701732 L 14.492644579464098,-24.229003495524815 A 45.311244371411284 45.311244371411284 0 0 0 12.698856172145504,-21.540405101092272 Z M 84.95940229179013,-28.047113876863932 L 84.21575927218838,-27.37853698570063 A 44.311244371411284 44.311244371411284 0 0 1 86.24377901119388,-24.954207386061523 L 83.87554712320104,-23.112610870889455 L 90.93554286126084,-19.73526573327359 L 89.40142152851766,-27.409669406290945 L 87.03318964052482,-25.568072891118877 A 45.311244371411284 45.311244371411284 0 0 0 84.95940229179013,-28.047113876863932"/><text text-anchor="middle" pointer-events="none" font-size="8px" fill="#000000" x="48.83955393091529" y="-39.49867311819139" transform="rotate(180 48.83955393091529 -42.49867311819139)" font-family="sans-serif">CHEAPEST_FLIGHT</text></g><g class="relationship" transform="translate(158.69583094776996 59.35606422438126) rotate(463.3732612848921)"><path class="outline" fill="#A5ABB6" stroke="none" d="M 13.473521019338785,-21.06452542407343 L 14.30499063164133,-20.50895519105383 A 44.44944744642316 44.44944744642316 0 0 1 15.297986150909075,-21.93399663690813 L 14.488856423044119,-22.52162669356383 A 45.44944744642316 45.44944744642316 0 0 0 13.473521019338785,-21.06452542407343 Z M 85.01908743178265,-26.247745990716435 L 84.27637802910854,-25.578132114531467 A 44.44944744642316 44.44944744642316 0 0 1 85.41399713087986,-24.265651256395493 L 83.10908827649679,-22.345392114251784 L 90.27875327161237,-19.2075737865256 L 88.48720893672397,-26.825996779253774 L 86.1823000823409,-24.905737637110064 A 45.44944744642316 45.44944744642316 0 0 0 85.01908743178265,-26.247745990716435"/><text text-anchor="middle" pointer-events="none" font-size="8px" fill="#000000" x="48.89197854822818" y="-37.70101636635458" transform="rotate(180 48.89197854822818 -40.70101636635458)" font-family="sans-serif">CHEAPEST_FLIGHT</text></g><g class="relationship" transform="translate(158.69583094776996 59.35606422438126) rotate(463.3732612848921)"><path class="outline" fill="#A5ABB6" stroke="none" d="M 15.686668020603996,-19.47250488281772 L 16.452712463722975,-18.829717273131184 A 45.44206712279694 45.44206712279694 0 0 1 18.005133847712962,-20.585780534944043 L 17.273252053484825,-21.26721214506893 A 46.44206712279694 46.44206712279694 0 0 0 15.686668020603996,-19.47250488281772 Z M 82.03796695365858,-24.402139154075577 L 81.37532178316462,-23.653205660351972 A 45.44206712279694 45.44206712279694 0 0 1 83.0900920328114,-22.05529035474764 L 80.9889506071919,-19.913981243585578 L 88.43667019645945,-17.509511880162485 L 85.89161393363739,-24.91036916963039 L 83.79047250801788,-22.769060058468327 A 46.44206712279694 46.44206712279694 0 0 0 82.03796695365858,-24.402139154075577"/><text text-anchor="middle" pointer-events="none" font-size="8px" fill="#000000" x="49.04213677254133" y="-32.50845925284738" transform="rotate(180 49.04213677254133 -35.50845925284738)" font-family="sans-serif">CHEAPEST_FLI…</text></g><g class="relationship" transform="translate(158.69583094776996 59.35606422438126) rotate(463.3732612848921)"><path class="outline" fill="#A5ABB6" stroke="none" d="M 17.71334252360276,-17.649008375586607 L 18.404855579385025,-16.926644413526855 A 47.51681781398213 47.51681781398213 0 0 1 18.46098202062207,-16.980285988968802 L 17.770650155917387,-17.703778847657368 A 48.51681781398213 48.51681781398213 0 0 0 17.71334252360276,-17.649008375586607 Z M 81.58323567424189,-20.478142935095036 L 80.95830020704967,-19.69746652207538 A 47.51681781398213 47.51681781398213 0 0 1 81.01887038821398,-19.648898536986938 L 79.14023985548013,-17.30993566394253 L 86.78955551410657,-15.655254439448697 L 83.52371109852578,-22.767515701046147 L 81.64508056579193,-20.428552828001738 A 48.51681781398213 48.51681781398213 0 0 0 81.58323567424189,-20.478142935095036"/><text text-anchor="middle" pointer-events="none" font-size="8px" fill="#000000" x="49.17771032940047" y="-27.573708311383683" transform="rotate(180 49.17771032940047 -30.573708311383683)" font-family="sans-serif">CHEAPEST_FL…</text></g><g class="relationship" transform="translate(158.69583094776996 59.35606422438126) rotate(463.3732612848921)"><path class="outline" fill="#A5ABB6" stroke="none" d="M 19.529452792776517,-15.615712395363635 L 20.13821422178524,-14.822359055072399 A 51.12863555741154 51.12863555741154 0 0 1 21.590852540350255,-15.896767692152046 L 21.010502554415034,-16.711134865990104 A 52.12863555741154 52.12863555741154 0 0 0 19.529452792776517,-15.615712395363635 Z M 78.19801237569183,-18.890203931814014 L 77.68131638661217,-18.034034991201835 A 51.12863555741154 51.12863555741154 0 0 1 79.21150230392756,-17.073283690164807 L 77.57162986069189,-14.561149464070143 L 85.34646090535439,-13.665603693630665 L 81.39799889490847,-20.422795991624362 L 79.7581264516728,-17.910661765529696 A 52.12863555741154 52.12863555741154 0 0 0 78.19801237569183,-18.890203931814014"/><text text-anchor="middle" pointer-events="none" font-size="8px" fill="#000000" x="49.297527960336794" y="-22.85048151296921" transform="rotate(180 49.297527960336794 -25.85048151296921)" font-family="sans-serif">CHEAPEST_…</text></g><g class="relationship" transform="translate(158.69583094776996 59.35606422438126) rotate(463.3732612848921)"><path class="outline" fill="#A5ABB6" stroke="none" d="M 21.113410137743404,-13.396787389349507 L 21.632183395903926,-12.54187551867656 A 57.11777082755611 57.11777082755611 0 0 1 22.96714392976785,-13.327383513601262 L 22.471742741534467,-14.196047811645649 A 58.11777082755611 58.11777082755611 0 0 0 21.113410137743404,-13.396787389349507 Z M 76.73215866741813,-15.951193671826509 L 76.29393120552861,-15.052329559935359 A 57.11777082755611 57.11777082755611 0 0 1 77.67686517676701,-14.35473650645811 L 76.28954686967495,-11.694783891314898 L 84.11464099661652,-11.560985892433836 L 79.52662291955642,-17.901339993315727 L 78.13930461246436,-15.241387378172515 A 58.11777082755611 58.11777082755611 0 0 0 76.73215866741813,-15.951193671826509"/><text text-anchor="middle" pointer-events="none" font-size="8px" fill="#000000" x="49.40058448902833" y="-18.298866660899705" transform="rotate(180 49.40058448902833 -21.298866660899705)" font-family="sans-serif">CHEAPEST…</text></g><g class="relationship" transform="translate(158.69583094776996 59.35606422438126) rotate(463.3732612848921)"><path class="outline" fill="#A5ABB6" stroke="none" d="M 22.446385545045896,-11.018610437035811 L 22.869003806786598,-10.112302649999162 A 67.18675985094117 67.18675985094117 0 0 1 24.914288228603397,-11.024847290665022 L 24.522111744771834,-11.944737287093673 A 68.18675985094117 68.18675985094117 0 0 0 22.446385545045896,-11.018610437035811 Z M 74.67483081738546,-13.262101069871484 L 74.33148739702668,-12.322891138228755 A 67.18675985094117 67.18675985094117 0 0 1 76.42185809595635,-11.51897794117899 L 75.29848932427613,-8.737244200718973 L 83.09979828564309,-9.361406430668486 L 77.91968312486331,-15.227956261792347 L 76.79631435318309,-12.446222521332329 A 68.18675985094117 68.18675985094117 0 0 0 74.67483081738546,-13.262101069871484"/><text text-anchor="middle" pointer-events="none" font-size="8px" fill="#000000" x="49.48603725863626" y="-13.88384043757214" transform="rotate(180 49.48603725863626 -16.88384043757214)" font-family="sans-serif">CHEAPES…</text></g><g class="relationship" transform="translate(158.69583094776996 59.35606422438126) rotate(187.21289007847452)"><path class="outline" fill="#A5ABB6" stroke="none" d="M 18.343228848217933,-16.993409175968942 L 19.008024713831873,-16.246384104727944 A 48.52013777477483 48.52013777477483 0 0 1 19.832392028061182,-16.96353930536562 L 19.18458637212175,-17.725344944707366 A 49.52013777477483 49.52013777477483 0 0 0 18.343228848217933,-16.993409175968942 Z M 80.08872784156895,-20.266985189564558 L 79.50664714811154,-19.45385416303555 A 48.52013777477483 48.52013777477483 0 0 1 80.38790042216532,-18.807877601896656 L 78.58717045401264,-16.40842525150566 L 86.28674423443641,-15.006083067938924 L 82.78887371303554,-22.00714740241799 L 80.98814374488286,-19.60769505202699 A 49.52013777477483 49.52013777477483 0 0 0 80.08872784156895,-20.266985189564558"/><text text-anchor="middle" pointer-events="none" font-size="8px" fill="#000000" x="49.220091495448365" y="-25.978132805947254" transform="rotate(180 49.220091495448365 -28.978132805947254)" font-family="sans-serif">CHEAPEST_F…</text></g><g class="relationship" transform="translate(158.69583094776996 59.35606422438126) rotate(463.3732612848921)"><path class="outline" fill="#A5ABB6" stroke="none" d="M 23.51253350472606,-8.509451697326591 L 23.833972970029226,-7.562521567831486 A 85.33296454771748 85.33296454771748 0 0 1 24.66243298263938,-7.839025801182572 L 24.350702075066533,-8.789196228665872 A 86.33296454771748 86.33296454771748 0 0 0 23.51253350472606,-8.509451697326591 Z M 74.8864857117035,-9.796281050939598 L 74.61285755160868,-8.834445498465513 A 85.33296454771748 85.33296454771748 0 0 1 75.45167587311343,-8.591167042651918 L 74.6013015587672,-5.714213180404529 L 82.30629727074839,-7.086452619551938 L 76.58550829224174,-12.42710552564844 L 75.73513397789552,-9.55015166340105 A 86.33296454771748 86.33296454771748 0 0 0 74.8864857117035,-9.796281050939598"/><text text-anchor="middle" pointer-events="none" font-size="8px" fill="#000000" x="49.55320257113633" y="-9.574092543451158" transform="rotate(180 49.55320257113633 -12.574092543451158)" font-family="sans-serif">CHEAPES…</text></g><g class="relationship" transform="translate(158.69583094776996 59.35606422438126) rotate(463.3732612848921)"><path class="outline" fill="#A5ABB6" stroke="none" d="M 24.299180371029284,-5.899138352012538 L 24.515619984967383,-4.922842344892605 A 123.58059134989526 123.58059134989526 0 0 1 25.88672277996585,-5.218655147631793 L 25.681377972906578,-6.197344838092363 A 124.58059134989526 124.58059134989526 0 0 0 24.299180371029284,-5.899138352012538 Z M 73.5705620245783,-6.8387790004957765 L 73.3915035828428,-5.854940561297937 A 123.58059134989526 123.58059134989526 0 0 1 74.77003739805374,-5.595956760574731 L 74.19939725931583,-2.650728444796619 L 81.73734349132565,-4.7553344894826175 L 75.53089091637095,-9.52292784827888 L 74.96025077763304,-6.577699532500768 A 124.58059134989526 124.58059134989526 0 0 0 73.5705620245783,-6.8387790004957765"/><text text-anchor="middle" pointer-events="none" font-size="8px" fill="#000000" x="49.601552422602275" y="-5.341067094899927" transform="rotate(180 49.601552422602275 -8.341067094899927)" font-family="sans-serif">BUSINES…</text></g><g class="relationship" transform="translate(158.69583094776996 59.35606422438126) rotate(463.3732612848921)"><path class="outline" fill="#A5ABB6" stroke="none" d="M 24.79697501813201,-3.2187000404102744 L 24.90584189298397,-2.2246437021879544 A 242.1077449852192 242.1077449852192 0 0 1 25.73109118256042,-2.3135918780381246 L 25.625632911136762,-3.3080156071337115 A 243.1077449852192 243.1077449852192 0 0 0 24.79697501813201,-3.2187000404102744 Z M 73.64505826008946,-3.6311725948283424 L 73.55299330841763,-2.635419590979666 A 242.1077449852192 242.1077449852192 0 0 1 74.37936498918032,-2.557586351505941 L 74.09293041613172,0.4287082145679548 L 81.39512473886083,-2.3869547754048877 L 74.7612777532451,-6.539312439604468 L 74.4748431801965,-3.5530178735305724 A 243.1077449852192 243.1077449852192 0 0 0 73.64505826008946,-3.6311725948283424"/><text text-anchor="middle" pointer-events="none" font-size="8px" fill="#000000" x="49.63071175640048" y="-1.158156701910599" transform="rotate(180 49.63071175640048 -4.158156701910599)" font-family="sans-serif">BUSINES…</text></g><g class="relationship" transform="translate(158.69583094776996 59.35606422438126) rotate(463.3732612848921)"><path class="outline" fill="#A5ABB6" stroke="none" d="M 25 0.5 L 25.6404563947383 0.5 L 25.6404563947383 -0.5 L 25 -0.5 Z M 73.6404563947383 0.5 L 74.2809127894766 0.5 L 74.2809127894766 3.5 L 81.2809127894766 0 L 74.2809127894766 -3.5 L 74.2809127894766 -0.5 L 73.6404563947383 -0.5 Z"/><text text-anchor="middle" pointer-events="none" font-size="8px" fill="#000000" x="49.6404563947383" y="3" transform="rotate(180 49.6404563947383 0)" font-family="sans-serif">BUSINES…</text></g><g class="relationship" transform="translate(158.69583094776996 59.35606422438126) rotate(463.3732612848921)"><path class="outline" fill="#A5ABB6" stroke="none" d="M 24.79697501813201,3.2187000404102744 L 24.90584189298397,2.2246437021879544 A 242.1077449852192 242.1077449852192 0 0 0 25.731091182560494,2.313591878038153 L 25.625632911136837,3.3080156071337115 A 243.1077449852192 243.1077449852192 0 0 1 24.79697501813201,3.2187000404102744 Z M 73.64505826008946,3.6311725948283424 L 73.55299330841764,2.635419590979666 A 242.1077449852192 242.1077449852192 0 0 0 74.37936498918032,2.557586351505941 L 74.09293041613172,-0.4287082145679548 L 81.39512473886083,2.3869547754048877 L 74.7612777532451,6.539312439604468 L 74.4748431801965,3.5530178735305724 A 243.1077449852192 243.1077449852192 0 0 1 73.64505826008946,3.6311725948283424"/><text text-anchor="middle" pointer-events="none" font-size="8px" fill="#000000" x="49.63071175640052" y="7.158156701910599" transform="rotate(180 49.63071175640052 4.158156701910599)" font-family="sans-serif">BUSINES…</text></g><g class="relationship" transform="translate(158.69583094776996 59.35606422438126) rotate(463.3732612848921)"><path class="outline" fill="#A5ABB6" stroke="none" d="M 24.299180371029284,5.899138352012538 L 24.515619984967383,4.922842344892605 A 123.58059134989526 123.58059134989526 0 0 0 25.886722779965897,5.218655147631793 L 25.681377972906624,6.197344838092363 A 124.58059134989526 124.58059134989526 0 0 1 24.299180371029284,5.899138352012538 Z M 73.57056202457832,6.838779000495762 L 73.39150358284284,5.854940561297923 A 123.58059134989526 123.58059134989526 0 0 0 74.77003739805374,5.595956760574731 L 74.19939725931583,2.650728444796619 L 81.73734349132565,4.7553344894826175 L 75.53089091637095,9.52292784827888 L 74.96025077763304,6.577699532500768 A 124.58059134989526 124.58059134989526 0 0 1 73.57056202457832,6.838779000495762"/><text text-anchor="middle" pointer-events="none" font-size="8px" fill="#000000" x="49.60155242260231" y="11.341067094899927" transform="rotate(180 49.60155242260231 8.341067094899927)" font-family="sans-serif">BUSINES…</text></g><g class="relationship" transform="translate(158.69583094776996 59.35606422438126) rotate(187.21289007847452)"><path class="outline" fill="#A5ABB6" stroke="none" d="M 22.446385545045896,-11.018610437035811 L 22.869003806786598,-10.112302649999162 A 67.18831264361259 67.18831264361259 0 0 1 24.004698113148983,-10.62910190321098 L 23.598983004079887,-11.543101493075795 A 68.18831264361259 68.18831264361259 0 0 0 22.446385545045896,-11.018610437035811 Z M 75.61904694732407,-12.909499529551915 L 75.26187378527362,-11.975461343870577 A 67.18831264361259 67.18831264361259 0 0 1 76.42313260080071,-11.518995585039931 L 75.29976218538049,-8.737262508384559 L 83.10107151556663,-9.361420128501948 L 77.92095982136102,-15.22797302058043 L 76.7975894059408,-12.446239943925058 A 68.18831264361259 68.18831264361259 0 0 0 75.61904694732407,-12.909499529551915"/><text text-anchor="middle" pointer-events="none" font-size="8px" fill="#000000" x="49.486672715746465" y="-13.883985911872351" transform="rotate(180 49.486672715746465 -16.88398591187235)" font-family="sans-serif">BUSINESS…</text></g><g class="relationship" transform="translate(158.69583094776996 59.35606422438126) rotate(187.21289007847452)"><path class="outline" fill="#A5ABB6" stroke="none" d="M 24.663575034869986,-4.118017301971641 L 24.808506894177235,-3.1285756633906963 A 182.53753824588367 182.53753824588367 0 0 1 25.77733944496381,-3.2678365326891026 L 25.637715165456843,-4.2580410876029475 A 183.53753824588367 183.53753824588367 0 0 0 24.663575034869986,-4.118017301971641 Z M 73.62911056724741,-4.688118981402823 L 73.50725484729237,-3.6955711571070538 A 182.53753824588367 182.53753824588367 0 0 1 74.47842758701594,-3.5736957666495597 L 74.09689922680177,-0.5980553128392749 L 81.48517670594231,-3.1794030017848507 L 74.98713206730152,-7.54121637172994 L 74.60560370708734,-4.565575917919655 A 183.53753824588367 183.53753824588367 0 0 0 73.62911056724741,-4.688118981402823"/><text text-anchor="middle" pointer-events="none" font-size="8px" fill="#000000" x="49.623775211782416" y="-2.5485235712864664" transform="rotate(180 49.623775211782416 -5.5485235712864664)" font-family="sans-serif">BUSINES…</text></g><g class="relationship" transform="translate(158.69583094776996 59.35606422438126) rotate(463.3732612848921)"><path class="outline" fill="#A5ABB6" stroke="none" d="M 23.51253350472606,8.509451697326591 L 23.833972970029226,7.562521567831486 A 85.33296454771748 85.33296454771748 0 0 0 26.083375912141307,8.291493744520594 L 25.78829675148752,9.246966553630216 A 86.33296454771748 86.33296454771748 0 0 1 23.51253350472606,8.509451697326591 Z M 73.43179461838383,10.196413462908922 L 73.17501623404897,9.229943152274203 A 85.33296454771748 85.33296454771748 0 0 0 75.45167587311343,8.591167042651918 L 74.6013015587672,5.714213180404529 L 82.30629727074839,7.086452619551938 L 76.58550829224174,12.42710552564844 L 75.73513397789552,9.55015166340105 A 86.33296454771748 86.33296454771748 0 0 1 73.43179461838383,10.196413462908922"/><text text-anchor="middle" pointer-events="none" font-size="8px" fill="#000000" x="49.55320257113633" y="15.574092543451158" transform="rotate(180 49.55320257113633 12.574092543451158)" font-family="sans-serif">BUSINES…</text></g><g class="relationship" transform="translate(158.69583094776996 59.35606422438126) rotate(463.3732612848921)"><path class="outline" fill="#A5ABB6" stroke="none" d="M 22.446385545045896,11.018610437035811 L 22.869003806786598,10.112302649999162 A 67.18675985094117 67.18675985094117 0 0 0 24.004102190723014,10.628837083193964 L 23.598378602671815,11.542832909277898 A 68.18675985094117 68.18675985094117 0 0 1 22.446385545045896,11.018610437035811 Z M 75.61838928886206,12.909244926909096 L 75.26120801385909,11.975209843634786 A 67.18675985094117 67.18675985094117 0 0 0 76.42185809595635,11.51897794117899 L 75.29848932427613,8.737244200718973 L 83.09979828564309,9.361406430668486 L 77.91968312486331,15.227956261792347 L 76.79631435318309,12.446222521332329 A 68.18675985094117 68.18675985094117 0 0 1 75.61838928886206,12.909244926909096"/><text text-anchor="middle" pointer-events="none" font-size="8px" fill="#000000" x="49.486037258636294" y="19.883840437572154" transform="rotate(180 49.486037258636294 16.883840437572154)" font-family="sans-serif">BUSINESS…</text></g><g class="relationship" transform="translate(158.69583094776996 59.35606422438126) rotate(463.3732612848921)"><path class="outline" fill="#A5ABB6" stroke="none" d="M 21.113410137743404,13.396787389349507 L 21.632183395903926,12.54187551867656 A 57.11777082755611 57.11777082755611 0 0 0 22.537651690693888,13.079967341749324 L 22.034731087174315,13.944299955131179 A 58.11777082755611 58.11777082755611 0 0 1 21.113410137743404,13.396787389349507 Z M 77.18452618494265,15.728214304182366 L 76.73851508801202,14.83318687364477 A 57.11777082755611 57.11777082755611 0 0 0 77.67686517676701,14.35473650645811 L 76.28954686967495,11.694783891314898 L 84.11464099661652,11.560985892433836 L 79.52662291955642,17.901339993315727 L 78.13930461246436,15.241387378172515 A 58.11777082755611 58.11777082755611 0 0 1 77.18452618494265,15.728214304182366"/><text text-anchor="middle" pointer-events="none" font-size="8px" fill="#000000" x="49.400584489028354" y="24.298866660899705" transform="rotate(180 49.400584489028354 21.298866660899705)" font-family="sans-serif">BUSINESS_…</text></g><g class="relationship" transform="translate(158.69583094776996 59.35606422438126) rotate(463.3732612848921)"><path class="outline" fill="#A5ABB6" stroke="none" d="M 19.529452792776517,15.615712395363635 L 20.13821422178524,14.822359055072399 A 51.12863555741154 51.12863555741154 0 0 0 20.78998839234268,15.314263915011331 L 20.19397469586098,16.11723818209977 A 52.12863555741154 52.12863555741154 0 0 1 19.529452792776517,15.615712395363635 Z M 79.05736660410392,18.360164947359962 L 78.52418535276439,17.514163911178557 A 51.12863555741154 51.12863555741154 0 0 0 79.21150230392756,17.073283690164807 L 77.57162986069189,14.561149464070143 L 85.34646090535439,13.665603693630665 L 81.39799889490847,20.422795991624362 L 79.7581264516728,17.910661765529696 A 52.12863555741154 52.12863555741154 0 0 1 79.05736660410392,18.360164947359962"/><text text-anchor="middle" pointer-events="none" font-size="8px" fill="#000000" x="49.297527960336794" y="28.85048151296921" transform="rotate(180 49.297527960336794 25.85048151296921)" font-family="sans-serif">BUSINESS_F…</text></g><g class="relationship" transform="translate(158.69583094776996 59.35606422438126) rotate(463.3732612848921)"><path class="outline" fill="#A5ABB6" stroke="none" d="M 17.71334252360276,17.649008375586607 L 18.404855579385025,16.926644413526855 A 47.51681781398213 47.51681781398213 0 0 0 18.820733488659997,17.31998772239009 L 18.13797265847716,18.050629665319754 A 48.51681781398213 48.51681781398213 0 0 1 17.71334252360276,17.649008375586607 Z M 81.18719620456667,20.791805252020744 L 80.57042366906535,20.004663816539633 A 47.51681781398213 47.51681781398213 0 0 0 81.01887038821398,19.648898536986938 L 79.14023985548013,17.30993566394253 L 86.78955551410657,15.655254439448697 L 83.52371109852578,22.767515701046147 L 81.64508056579193,20.428552828001738 A 48.51681781398213 48.51681781398213 0 0 1 81.18719620456667,20.791805252020744"/><text text-anchor="middle" pointer-events="none" font-size="8px" fill="#000000" x="49.177710329400476" y="33.57370831138368" transform="rotate(180 49.177710329400476 30.573708311383683)" font-family="sans-serif">BUSINESS_FLI…</text></g><g class="relationship" transform="translate(158.69583094776996 59.35606422438126) rotate(187.21289007847452)"><path class="outline" fill="#A5ABB6" stroke="none" d="M 24.663575034869986,4.118017301971641 L 24.808506894177235,3.1285756633906963 A 182.53753824588367 182.53753824588367 0 0 0 25.777339444963914,3.2678365326891026 L 25.637715165456946,4.2580410876029475 A 183.53753824588367 183.53753824588367 0 0 1 24.663575034869986,4.118017301971641 Z M 73.62911056724744,4.688118981402823 L 73.5072548472924,3.6955711571070538 A 182.53753824588367 182.53753824588367 0 0 0 74.47842758701594,3.5736957666495597 L 74.09689922680177,0.5980553128392749 L 81.48517670594231,3.1794030017848507 L 74.98713206730152,7.54121637172994 L 74.60560370708734,4.565575917919655 A 183.53753824588367 183.53753824588367 0 0 1 73.62911056724744,4.688118981402823"/><text text-anchor="middle" pointer-events="none" font-size="8px" fill="#000000" x="49.62377521178249" y="8.548523571286466" transform="rotate(180 49.62377521178249 5.5485235712864664)" font-family="sans-serif">BUSINES…</text></g><g class="relationship" transform="translate(158.69583094776996 59.35606422438126) rotate(463.3732612848921)"><path class="outline" fill="#A5ABB6" stroke="none" d="M 15.686668020603996,19.47250488281772 L 16.452712463722975,18.829717273131184 A 45.44206712279694 45.44206712279694 0 0 0 17.012015588757265,19.483595268968784 L 16.25827919323487,20.140772144752543 A 46.44206712279694 46.44206712279694 0 0 1 15.686668020603996,19.47250488281772 Z M 83.15699013879691,23.378994935267876 L 82.47024993432913,22.65209199018679 A 45.44206712279694 45.44206712279694 0 0 0 83.0900920328114,22.05529035474764 L 80.9889506071919,19.913981243585578 L 88.43667019645945,17.509511880162485 L 85.89161393363739,24.91036916963039 L 83.79047250801788,22.769060058468327 A 46.44206712279694 46.44206712279694 0 0 1 83.15699013879691,23.378994935267876"/><text text-anchor="middle" pointer-events="none" font-size="8px" fill="#000000" x="49.04213677254133" y="38.50845925284738" transform="rotate(180 49.04213677254133 35.50845925284738)" font-family="sans-serif">BUSINESS_FLIG…</text></g><g class="relationship" transform="translate(158.69583094776996 59.35606422438126) rotate(463.3732612848921)"><path class="outline" fill="#A5ABB6" stroke="none" d="M 13.473521019338785,21.06452542407343 L 14.30499063164133,20.50895519105383 A 44.44944744642316 44.44944744642316 0 0 0 16.189488488349014,23.11942549492056 L 15.400415305360447,23.73372469880112 A 45.44944744642316 45.44944744642316 0 0 1 13.473521019338785,21.06452542407343 Z M 83.98488867485872,27.35704942143634 L 83.26493419694235,26.66302813233337 A 44.44944744642316 44.44944744642316 0 0 0 85.41399713087986,24.265651256395493 L 83.10908827649679,22.345392114251784 L 90.27875327161237,19.2075737865256 L 88.48720893672397,26.825996779253774 L 86.1823000823409,24.905737637110064 A 45.44944744642316 45.44944744642316 0 0 1 83.98488867485872,27.35704942143634"/><text text-anchor="middle" pointer-events="none" font-size="8px" fill="#000000" x="48.89197854822819" y="43.70101636635458" transform="rotate(180 48.89197854822819 40.70101636635458)" font-family="sans-serif">BUSINESS_FLIGHT</text></g><g class="relationship" transform="translate(158.69583094776996 59.35606422438126) rotate(463.3732612848921)"><path class="outline" fill="#A5ABB6" stroke="none" d="M 11.10020991428674,22.406145136073057 L 11.987220747464963,21.944396522838026 A 44.27920522547292 44.27920522547292 0 0 0 16.131263338140116,28.450049121827366 L 15.337841415819106,29.05872116256888 A 45.27920522547292 45.27920522547292 0 0 1 11.10020991428674,22.406145136073057 Z M 83.84349000520531,32.94279129531202 L 83.12395143609864,32.24833881488739 A 44.27920522547292 44.27920522547292 0 0 0 87.9767760605689,26.2527823022523 L 85.48937229575603,24.575635167742405 L 92.3046866685608,20.728364706773917 L 91.29331441365272,28.488978481598828 L 88.80591064883986,26.811831347088933 A 45.27920522547292 45.27920522547292 0 0 1 83.84349000520531,32.94279129531202"/><text text-anchor="middle" pointer-events="none" font-size="8px" fill="#000000" x="48.72857618466961" y="49.20594050511969" transform="rotate(180 48.72857618466961 46.20594050511969)" font-family="sans-serif">BUSINESS_FLIGHT</text></g><g class="relationship" transform="translate(158.69583094776996 59.35606422438126) rotate(463.3732612848921)"><path class="outline" fill="#A5ABB6" stroke="none" d="M 8.594947022451143,23.48141575121181 L 9.526954891733942,23.11897771292811 A 44.781167574651874 44.781167574651874 0 0 0 15.90501411570569,34.36840207821014 L 15.115433511485584,34.982048938741016 A 45.781167574651874 45.781167574651874 0 0 1 8.594947022451143,23.48141575121181 Z M 83.79578602736063,39.09969941295884 L 83.08517875620855,38.396110537133055 A 44.781167574651874 44.781167574651874 0 0 0 90.76161188668476,27.989306877602452 L 88.11552703278774,26.575717493807858 L 94.50100125785498,22.050707115808503 L 94.28972502521411,29.874092722661914 L 91.64364017131709,28.46050333886732 A 45.781167574651874 45.781167574651874 0 0 1 83.79578602736063,39.09969941295884"/><text text-anchor="middle" pointer-events="none" font-size="8px" fill="#000000" x="48.55344182185032" y="55.08858477095393" transform="rotate(180 48.55344182185032 52.08858477095393)" font-family="sans-serif">BUSINESS_FLIGHT</text></g><g class="relationship" transform="translate(158.69583094776996 59.35606422438126) rotate(463.3732612848921)"><path class="outline" fill="#A5ABB6" stroke="none" d="M 5.987513214418485,24.277555179777966 L 6.953439040707552,24.018736134675446 A 45.87300103208263 45.87300103208263 0 0 0 15.539038594676427,40.9227504784942 L 14.760272957622945,41.55006545722872 A 46.87300103208263 46.87300103208263 0 0 1 5.987513214418485,24.277555179777966 Z M 83.81761526810203,45.869784789232384 L 83.1230947747622,45.15031186803869 A 45.87300103208263 45.87300103208263 0 0 0 93.74830719949978,29.447984602109564 L 90.96987866136213,28.31646577395764 L 96.85158922154388,23.153571151147048 L 97.4528785836833,30.956676372978798 L 94.67445004554565,29.825157544826872 A 46.87300103208263 46.87300103208263 0 0 1 83.81761526810203,45.869784789232384"/><text text-anchor="middle" pointer-events="none" font-size="8px" fill="#000000" x="48.36826013656317" y="61.42847131210617" transform="rotate(180 48.36826013656317 58.42847131210617)" font-family="sans-serif">BUSINESS_FLIGHT</text></g><g class="relationship" transform="translate(53.254716679487025 46.011652994138885) rotate(367.2128900784745)"><path class="outline" fill="#A5ABB6" stroke="none" d="M 22.446385545045896,-11.018610437035811 L 22.869003806786598,-10.112302649999162 A 67.18831264361259 67.18831264361259 0 0 1 24.004698113148983,-10.62910190321098 L 23.598983004079887,-11.543101493075795 A 68.18831264361259 68.18831264361259 0 0 0 22.446385545045896,-11.018610437035811 Z M 75.61904694732407,-12.909499529551915 L 75.26187378527362,-11.975461343870577 A 67.18831264361259 67.18831264361259 0 0 1 76.42313260080071,-11.518995585039931 L 75.29976218538049,-8.737262508384559 L 83.10107151556663,-9.361420128501948 L 77.92095982136102,-15.22797302058043 L 76.7975894059408,-12.446239943925058 A 68.18831264361259 68.18831264361259 0 0 0 75.61904694732407,-12.909499529551915"/><text text-anchor="middle" pointer-events="none" font-size="8px" fill="#000000" x="49.486672715746465" y="-13.883985911872351" font-family="sans-serif">BUSINESS…</text></g><g class="relationship" transform="translate(53.254716679487025 46.011652994138885) rotate(367.2128900784745)"><path class="outline" fill="#A5ABB6" stroke="none" d="M 18.343228848217933,-16.993409175968942 L 19.008024713831873,-16.246384104727944 A 48.52013777477483 48.52013777477483 0 0 1 19.457015935789215,-16.64102305699035 L 18.801473778893943,-17.396181636715895 A 49.52013777477483 49.52013777477483 0 0 0 18.343228848217933,-16.993409175968942 Z M 80.49793374036136,-19.97088676874621 L 79.90758962282678,-19.16373509595335 A 48.52013777477483 48.52013777477483 0 0 1 80.38790042216532,-18.807877601896656 L 78.58717045401264,-16.40842525150566 L 86.28674423443641,-15.006083067938924 L 82.78887371303554,-22.00714740241799 L 80.98814374488286,-19.60769505202699 A 49.52013777477483 49.52013777477483 0 0 0 80.49793374036136,-19.97088676874621"/><text text-anchor="middle" pointer-events="none" font-size="8px" fill="#000000" x="49.220091495448365" y="-25.978132805947254" font-family="sans-serif">BUSINESS_FL…</text></g><g class="relationship" transform="translate(53.254716679487025 46.011652994138885) rotate(367.2128900784745)"><path class="outline" fill="#A5ABB6" stroke="none" d="M 12.698856172145504,-21.540405101092272 L 13.549972844582506,-21.015428520757713 A 44.311244371411284 44.311244371411284 0 0 1 16.190845366294802,-24.83367192255073 L 15.399326941642876,-25.444817227234104 A 45.311244371411284 45.311244371411284 0 0 0 12.698856172145504,-21.540405101092272 Z M 83.92666049855734,-29.157843513008235 L 83.20580965355947,-28.46475328853103 A 44.311244371411284 44.311244371411284 0 0 1 86.24377901119388,-24.954207386061523 L 83.87554712320104,-23.112610870889455 L 90.93554286126084,-19.73526573327359 L 89.40142152851766,-27.409669406290945 L 87.03318964052482,-25.568072891118877 A 45.311244371411284 45.311244371411284 0 0 0 83.92666049855734,-29.157843513008235"/><text text-anchor="middle" pointer-events="none" font-size="8px" fill="#000000" x="48.83955393091529" y="-39.49867311819139" font-family="sans-serif">BUSINESS_FLIGHT</text></g><g class="relationship" transform="translate(53.254716679487025 46.011652994138885) rotate(367.2128900784745)"><path class="outline" fill="#A5ABB6" stroke="none" d="M 5.987513214418485,-24.277555179777966 L 6.953439040707552,-24.018736134675446 A 45.87368042021123 45.87368042021123 0 0 1 14.627544190039906,-39.75306828065376 L 13.828906121764504,-40.35487990890742 A 46.87368042021123 46.87368042021123 0 0 0 5.987513214418485,-24.277555179777966 Z M 84.89199636762669,-44.80001194496798 L 84.17457916546465,-44.10336816365505 A 45.87368042021123 45.87368042021123 0 0 1 93.74961793551469,-29.4480029182913 L 90.97118774368238,-28.3164881507718 L 96.85289075836558,-23.153584931935843 L 97.45419152462443,-30.95668927498397 L 94.67576133279212,-29.825174507464467 A 46.87368042021123 46.87368042021123 0 0 0 84.89199636762669,-44.80001194496798"/><text text-anchor="middle" pointer-events="none" font-size="8px" fill="#000000" x="48.368907781591645" y="-55.4289756519574" font-family="sans-serif">CHEAPEST_FLIGHT</text></g></g><g class="layer nodes"><g class="node" transform="translate(134.1137036470375,162.75505571237844)"><circle class="outline" cx="0" cy="0" r="25" fill="#DE9BF9" stroke="#BF85D6" stroke-width="2px"/><text text-anchor="middle" pointer-events="none" font-family="sans-serif" dy="1.5625" font-size="25" fill="#FFFFFF"/><text text-anchor="middle" pointer-events="none" y="5" font-size="10px" fill="#FFFFFF" font-family="sans-serif"> GRR</text></g><g class="node" transform="translate(158.69583094776996,59.35606422438126)"><circle class="outline" cx="0" cy="0" r="25" fill="#DE9BF9" stroke="#BF85D6" stroke-width="2px"/><text text-anchor="middle" pointer-events="none" font-family="sans-serif" dy="1.5625" font-size="25" fill="#FFFFFF"/><text text-anchor="middle" pointer-events="none" y="5" font-size="10px" fill="#FFFFFF" font-family="sans-serif"> ORD</text></g><g class="node" transform="translate(53.254716679487025,46.011652994138885)"><circle class="outline" cx="0" cy="0" r="25" fill="#DE9BF9" stroke="#BF85D6" stroke-width="2px"/><text text-anchor="middle" pointer-events="none" font-family="sans-serif" dy="1.5625" font-size="25" fill="#FFFFFF"/><text text-anchor="middle" pointer-events="none" y="5" font-size="10px" fill="#FFFFFF" font-family="sans-serif"> MSN</text></g></g></svg>