<svg xmlns="http://www.w3.org/2000/svg" width="400.6676940917969" height="397.1951599121094" viewBox="-94.34912109375 -89.26412963867188 400.6676940917969 397.1951599121094"><title>Neo4j Graph Visualization</title><desc>Created using Neo4j (http://www.neo4j.com/)</desc><g class="layer relationships"><g class="relationship" transform="translate(167.48310199168986 278.9310289858932) rotate(317.923326299319)"><path class="outline" fill="#A5ABB6" stroke="none" d="M 24.018736134675446,-6.953439040707552 L 24.277555179777966,-5.987513214418485 A 110.80518572595014 110.80518572595014 0 0 1 41.625584628193934,-9.182283798577842 L 41.52332891841511,-10.177041944972032 A 111.80518572595014 111.80518572595014 0 0 0 24.018736134675446,-6.953439040707552 Z M 60.91935985166584,-10.47915474916681 L 60.84813495938393,-9.481694466890147 A 110.80518572595014 110.80518572595014 0 0 1 78.2872481924963,-6.828768823152242 L 77.6014174576414,-3.9082147313524693 L 85.21617952917158,-5.715256123790785 L 79.20168917230284,-10.722840945551939 L 78.51585843744793,-7.802286853752166 A 111.80518572595014 111.80518572595014 0 0 0 60.91935985166584,-10.47915474916681"/><text text-anchor="middle" pointer-events="none" font-size="8px" fill="#000000" x="51.22256693878965" y="-7.249608822602767" font-family="sans-serif">trek</text></g><g class="relationship" transform="translate(248.7995154168669 205.5161233319485) rotate(284.40887076783827)"><path class="outline" fill="#A5ABB6" stroke="none" d="M 21.40063509461097,-12.933012701892217 L 21.90063509461097,-12.06698729810778 A 67.32541404077797 67.32541404077797 0 0 1 31.121473868596397,-16.49348936782215 L 30.758433126929372,-17.425262634175 A 68.32541404077797 68.32541404077797 0 0 0 21.40063509461097,-12.933012701892217 Z M 76.636562604989,-18.755941891423475 L 76.32813826851279,-17.804693013017186 A 67.32541404077797 67.32541404077797 0 0 1 85.79003813530872,-13.920077307474923 L 84.44314574180628,-11.239427968168258 L 92.26936865927468,-11.224103279187005 L 87.58589465997865,-17.494276426550478 L 86.2390022664762,-14.813627087243812 A 68.32541404077797 68.32541404077797 0 0 0 76.636562604989,-18.755941891423475"/><text text-anchor="middle" pointer-events="none" font-size="8px" fill="#000000" x="53.596916443181804" y="-18.55837070672125" font-family="sans-serif">twowheeler</text></g><g class="relationship" transform="translate(277.31858043868226 94.51304891107395) rotate(188.49054764945328)"><path class="outline" fill="#A5ABB6" stroke="none" d="M 21.40063509461097,12.933012701892217 L 21.90063509461097,12.06698729810778 A 68.75925412072915 68.75925412072915 0 0 0 44.76554614680292,20.30797282898949 L 44.59808191009152,21.293850980396996 A 69.75925412072915 69.75925412072915 0 0 1 21.40063509461097,12.933012701892217 Z M 64.00244771757139,21.85024924026534 L 63.89175006662988,20.85639511109143 A 68.75925412072915 68.75925412072915 0 0 0 87.1913070106133,13.93912352766163 L 85.84264295436728,11.259365093886295 L 93.66885403213008,11.23886713538348 L 88.98952575227466,17.51213477269541 L 87.64086169602864,14.832376338920076 A 69.75925412072915 69.75925412072915 0 0 1 64.00244771757139,21.85024924026534"/><text text-anchor="middle" pointer-events="none" font-size="8px" fill="#000000" x="54.295147219715176" y="24.750525988940083" transform="rotate(180 54.295147219715176 21.750525988940083)" font-family="sans-serif">trek</text></g><g class="relationship" transform="translate(162.58974080948937 77.38605857060588) rotate(521.5210400923754)"><path class="outline" fill="#A5ABB6" stroke="none" d="M 25 0.5 L 56.61263612753896 0.5 L 56.61263612753896 -0.5 L 25 -0.5 Z M 75.94857362753896 0.5 L 107.56120975507793 0.5 L 107.56120975507793 3.5 L 114.56120975507793 0 L 107.56120975507793 -3.5 L 107.56120975507793 -0.5 L 75.94857362753896 -0.5 Z"/><text text-anchor="middle" pointer-events="none" font-size="8px" fill="#000000" x="66.28060487753896" y="3" transform="rotate(180 66.28060487753896 0)" font-family="sans-serif">trek</text></g><g class="relationship" transform="translate(167.48310199168986 278.9310289858932) rotate(317.923326299319)"><path class="outline" fill="#A5ABB6" stroke="none" d="M 24.018736134675446,6.953439040707552 L 24.277555179777966,5.987513214418485 A 110.80518572595014 110.80518572595014 0 0 0 40.30153594808971,9.038132119176467 L 40.18733089973589,10.031589318521512 A 111.80518572595014 111.80518572595014 0 0 1 24.018736134675446,6.953439040707552 Z M 62.25923981347745,10.375381629371589 L 62.17603086202054,9.378849507261407 A 110.80518572595014 110.80518572595014 0 0 0 78.2872481924963,6.828768823152242 L 77.6014174576414,3.9082147313524693 L 85.21617952917158,5.715256123790785 L 79.20168917230284,10.722840945551939 L 78.51585843744793,7.802286853752166 A 111.80518572595014 111.80518572595014 0 0 1 62.25923981347745,10.375381629371589"/><text text-anchor="middle" pointer-events="none" font-size="8px" fill="#000000" x="51.222566938789676" y="13.249608822602767" font-family="sans-serif">road</text></g><g class="relationship" transform="translate(248.7995154168669 205.5161233319485) rotate(284.40887076783827)"><path class="outline" fill="#A5ABB6" stroke="none" d="M 25 0.5 L 42.798197201748444 0.5 L 42.798197201748444 -0.5 L 25 -0.5 Z M 64.80991595174845 0.5 L 82.60811315349689 0.5 L 82.60811315349689 3.5 L 89.60811315349689 0 L 82.60811315349689 -3.5 L 82.60811315349689 -0.5 L 64.80991595174845 -0.5 Z"/><text text-anchor="middle" pointer-events="none" font-size="8px" fill="#000000" x="53.804056576748444" y="3" font-family="sans-serif">road</text></g><g class="relationship" transform="translate(248.7995154168669 205.5161233319485) rotate(284.40887076783827)"><path class="outline" fill="#A5ABB6" stroke="none" d="M 21.40063509461097,12.933012701892217 L 21.90063509461097,12.06698729810778 A 67.32541404077797 67.32541404077797 0 0 0 44.0709966999511,20.09876842853859 L 43.900298226294666,21.084091741513248 A 68.32541404077797 68.32541404077797 0 0 1 21.40063509461097,12.933012701892217 Z M 63.30472289525324,21.646910359002277 L 63.191421265267756,20.653349721374852 A 67.32541404077797 67.32541404077797 0 0 0 85.79003813530872,13.920077307474923 L 84.44314574180628,11.239427968168258 L 92.26936865927468,11.224103279187005 L 87.58589465997865,17.494276426550478 L 86.2390022664762,14.813627087243812 A 68.32541404077797 68.32541404077797 0 0 1 63.30472289525324,21.646910359002277"/><text text-anchor="middle" pointer-events="none" font-size="8px" fill="#000000" x="53.59691644318179" y="24.55837070672125" font-family="sans-serif">trek</text></g><g class="relationship" transform="translate(277.31858043868226 94.51304891107395) rotate(188.49054764945328)"><path class="outline" fill="#A5ABB6" stroke="none" d="M 25 0.5 L 43.49422778179561 0.5 L 43.49422778179561 -0.5 L 25 -0.5 Z M 65.50594653179562 0.5 L 84.00017431359122 0.5 L 84.00017431359122 3.5 L 91.00017431359122 0 L 84.00017431359122 -3.5 L 84.00017431359122 -0.5 L 65.50594653179562 -0.5 Z"/><text text-anchor="middle" pointer-events="none" font-size="8px" fill="#000000" x="54.50008715679561" y="3" transform="rotate(180 54.50008715679561 0)" font-family="sans-serif">road</text></g><g class="relationship" transform="translate(277.31858043868226 94.51304891107395) rotate(188.49054764945328)"><path class="outline" fill="#A5ABB6" stroke="none" d="M 21.40063509461097,-12.933012701892217 L 21.90063509461097,-12.06698729810778 A 68.75925412072915 68.75925412072915 0 0 1 31.79403442632998,-16.771260931799233 L 31.437919048963433,-17.705702924650097 A 69.75925412072915 69.75925412072915 0 0 0 21.40063509461097,-12.933012701892217 Z M 77.34659116233105,-19.022082214247803 L 77.04460500618757,-18.068769903670784 A 68.75925412072915 68.75925412072915 0 0 1 87.1913070106133,-13.93912352766163 L 85.84264295436728,-11.259365093886295 L 93.66885403213008,-11.23886713538348 L 88.98952575227466,-17.51213477269541 L 87.64086169602864,-14.832376338920076 A 69.75925412072915 69.75925412072915 0 0 0 77.34659116233105,-19.022082214247803"/><text text-anchor="middle" pointer-events="none" font-size="8px" fill="#000000" x="54.295147219715176" y="-18.750525988940083" transform="rotate(180 54.295147219715176 -21.750525988940083)" font-family="sans-serif">twowheeler</text></g><g class="relationship" transform="translate(167.48310199168986 278.9310289858932) rotate(255.31178690719065)"><path class="outline" fill="#A5ABB6" stroke="none" d="M 21.40063509461097,12.933012701892217 L 21.90063509461097,12.06698729810778 A 64.46365376881046 64.46365376881046 0 0 0 42.68671204494111,19.679225460839305 L 42.50915850484667,20.66333660313977 A 65.46365376881046 65.46365376881046 0 0 1 21.40063509461097,12.933012701892217 Z M 61.91352379969726,21.239402756066596 L 61.79466300637581,20.2464918276289 A 64.46365376881046 64.46365376881046 0 0 0 82.99571072579232,13.880744390743425 L 81.6524771177367,11.198259819643368 L 89.47871365970173,11.193613400463624 L 84.7866888698665,17.4573904855435 L 83.44345526181087,14.774905914443442 A 65.46365376881046 65.46365376881046 0 0 1 61.91352379969726,21.239402756066596"/><text text-anchor="middle" pointer-events="none" font-size="8px" fill="#000000" x="52.204705982417806" y="24.174870503231105" transform="rotate(180 52.204705982417806 21.174870503231105)" font-family="sans-serif">trek</text></g><g class="relationship" transform="translate(139.12690659477465 170.7529787766125) rotate(252.03552832261062)"><path class="outline" fill="#A5ABB6" stroke="none" d="M 24.018736134675446,-6.953439040707552 L 24.277555179777966,-5.987513214418485 A 175.0120713525637 175.0120713525637 0 0 1 44.3638639824886,-10.125650452340466 L 44.219815928023905,-11.115221146128903 A 176.0120713525637 176.0120713525637 0 0 0 24.018736134675446,-6.953439040707552 Z M 90.677624378741,-11.681177683734376 L 90.55772571583734,-10.688391548338672 A 175.0120713525637 175.0120713525637 0 0 1 110.73888153727889,-7.0407990781711005 L 110.03324673991072,-4.124966515635454 L 117.66009664942342,-5.8802899780679985 L 111.67972793376977,-10.92857582821863 L 110.9740931364016,-8.012743265682982 A 176.0120713525637 176.0120713525637 0 0 0 90.677624378741,-11.681177683734376"/><text text-anchor="middle" pointer-events="none" font-size="8px" fill="#000000" x="67.43605456044651" y="-9.437882944381272" transform="rotate(180 67.43605456044651 -12.437882944381272)" font-family="sans-serif">twowheeler</text></g><g class="relationship" transform="translate(95.34298211315544 35.715055057614194) rotate(184.17724783851924)"><path class="outline" fill="#A5ABB6" stroke="none" d="M 24.018736134675446,-6.953439040707552 L 24.277555179777966,-5.987513214418485 A 95.80501070745296 95.80501070745296 0 0 1 24.63993492401125,-6.083852904888275 L 24.38489835063497,-7.0507843120938105 A 96.80501070745296 96.80501070745296 0 0 0 24.018736134675446,-6.953439040707552 Z M 70.63287117452822,-7.820772854937886 L 70.41016416329136,-6.845887432364577 A 95.80501070745296 95.80501070745296 0 0 1 70.77555011975595,-6.761664408144059 L 70.09598753553247,-3.8396454667058766 L 77.70685474714895,-5.66302153519564 L 71.68163356538726,-10.657689663394967 L 71.00207098116378,-7.735670721956785 A 96.80501070745296 96.80501070745296 0 0 0 70.63287117452822,-7.820772854937886"/><text text-anchor="middle" pointer-events="none" font-size="8px" fill="#000000" x="47.47054403866269" y="-6.738645001892522" transform="rotate(180 47.47054403866269 -9.738645001892522)" font-family="sans-serif">twowheeler</text></g><g class="relationship" transform="translate(-6.442914136158005 28.281002056526102) rotate(428.5533435215959)"><path class="outline" fill="#A5ABB6" stroke="none" d="M 24.018736134675446,6.953439040707552 L 24.277555179777966,5.987513214418485 A 92.24563501297091 92.24563501297091 0 0 0 37.002859357119206,8.454406849617413 L 36.88199051611633,9.447075335706614 A 93.24563501297091 93.24563501297091 0 0 1 24.018736134675446,6.953439040707552 Z M 56.28420290173274,9.775456693523978 L 56.19699538202535,8.779266526685092 A 92.24563501297091 92.24563501297091 0 0 0 68.99849138545454,6.744412554669534 L 68.32054031382457,3.8220192983681565 L 75.93040082876276,5.649592263583148 L 69.90242614762785,10.640936896404703 L 69.22447507599787,7.718543640103325 A 93.24563501297091 93.24563501297091 0 0 1 56.28420290173274,9.775456693523978"/><text text-anchor="middle" pointer-events="none" font-size="8px" fill="#000000" x="46.582992448256924" y="12.617426192616847" font-family="sans-serif">trek</text></g><g class="relationship" transform="translate(167.48310199168986 278.9310289858932) rotate(255.31178690719065)"><path class="outline" fill="#A5ABB6" stroke="none" d="M 25 0.5 L 26.445672751101107 0.5 L 26.445672751101107 -0.5 L 25 -0.5 Z M 78.38707900110111 0.5 L 79.83275175220221 0.5 L 79.83275175220221 3.5 L 86.83275175220221 0 L 79.83275175220221 -3.5 L 79.83275175220221 -0.5 L 78.38707900110111 -0.5 Z"/><text text-anchor="middle" pointer-events="none" font-size="8px" fill="#000000" x="52.41637587610111" y="3" transform="rotate(180 52.41637587610111 0)" font-family="sans-serif">PublicTran…</text></g><g class="relationship" transform="translate(167.48310199168986 278.9310289858932) rotate(255.31178690719065)"><path class="outline" fill="#A5ABB6" stroke="none" d="M 21.40063509461097,-12.933012701892217 L 21.90063509461097,-12.06698729810778 A 64.46365376881046 64.46365376881046 0 0 1 41.382732104112094,-19.430070372566696 L 41.18495042204007,-20.4103164672984 A 65.46365376881046 65.46365376881046 0 0 0 21.40063509461097,-12.933012701892217 Z M 63.250409587332065,-21.065383715351444 L 63.11112699182469,-20.075131041238045 A 64.46365376881046 64.46365376881046 0 0 1 82.99571072579232,-13.880744390743425 L 81.6524771177367,-11.198259819643368 L 89.47871365970173,-11.193613400463624 L 84.7866888698665,-17.4573904855435 L 83.44345526181087,-14.774905914443442 A 65.46365376881046 65.46365376881046 0 0 0 63.250409587332065,-21.065383715351444"/><text text-anchor="middle" pointer-events="none" font-size="8px" fill="#000000" x="52.204705982417785" y="-18.174870503231105" transform="rotate(180 52.204705982417785 -21.174870503231105)" font-family="sans-serif">road</text></g><g class="relationship" transform="translate(139.12690659477465 170.7529787766125) rotate(252.03552832261062)"><path class="outline" fill="#A5ABB6" stroke="none" d="M 24.018736134675446,6.953439040707552 L 24.277555179777966,5.987513214418485 A 175.0120713525637 175.0120713525637 0 0 0 57.810541609818344,11.555115397417723 L 57.74332641335828,12.552853898912389 A 176.0120713525637 176.0120713525637 0 0 1 24.018736134675446,6.953439040707552 Z M 77.1231054606306,12.78894150215757 L 77.08021582792554,11.789861685823354 A 175.0120713525637 175.0120713525637 0 0 0 110.73888153727889,7.0407990781711005 L 110.03324673991072,4.124966515635454 L 117.66009664942342,5.8802899780679985 L 111.67972793376977,10.92857582821863 L 110.9740931364016,8.012743265682982 A 176.0120713525637 176.0120713525637 0 0 1 77.1231054606306,12.78894150215757"/><text text-anchor="middle" pointer-events="none" font-size="8px" fill="#000000" x="67.43605456044659" y="15.437882944381272" transform="rotate(180 67.43605456044659 12.437882944381272)" font-family="sans-serif">trek</text></g><g class="relationship" transform="translate(95.34298211315544 35.715055057614194) rotate(184.17724783851924)"><path class="outline" fill="#A5ABB6" stroke="none" d="M 24.018736134675446,6.953439040707552 L 24.277555179777966,5.987513214418485 A 95.80501070745296 95.80501070745296 0 0 0 37.88659982717803,8.596590201114367 L 37.76983018582702,9.589749227080873 A 96.80501070745296 96.80501070745296 0 0 1 24.018736134675446,6.953439040707552 Z M 57.170838027642546,9.912759141801033 L 57.087194408357234,8.91626340926986 A 95.80501070745296 95.80501070745296 0 0 0 70.77555011975595,6.761664408144059 L 70.09598753553247,3.8396454667058766 L 77.70685474714895,5.66302153519564 L 71.68163356538726,10.657689663394967 L 71.00207098116378,7.735670721956785 A 96.80501070745296 96.80501070745296 0 0 1 57.170838027642546,9.912759141801033"/><text text-anchor="middle" pointer-events="none" font-size="8px" fill="#000000" x="47.470544038662695" y="12.738645001892522" transform="rotate(180 47.470544038662695 9.738645001892522)" font-family="sans-serif">trek</text></g><g class="relationship" transform="translate(-6.442914136158005 28.281002056526102) rotate(428.5533435215959)"><path class="outline" fill="#A5ABB6" stroke="none" d="M 24.018736134675446,-6.953439040707552 L 24.277555179777966,-5.987513214418485 A 92.24563501297091 92.24563501297091 0 0 1 26.348059385199686,-6.516675337838393 L 26.111685892183512,-7.488337610338107 A 93.24563501297091 93.24563501297091 0 0 0 24.018736134675446,-6.953439040707552 Z M 67.1146229700978,-8.18231002361442 L 66.91126609855364,-7.203205339325876 A 92.24563501297091 92.24563501297091 0 0 1 68.99849138545454,-6.744412554669534 L 68.32054031382457,-3.8220192983681565 L 75.93040082876276,-5.649592263583148 L 69.90242614762785,-10.640936896404703 L 69.22447507599787,-7.718543640103325 A 93.24563501297091 93.24563501297091 0 0 0 67.1146229700978,-8.18231002361442"/><text text-anchor="middle" pointer-events="none" font-size="8px" fill="#000000" x="46.58299244825688" y="-6.617426192616847" font-family="sans-serif">twowhe…</text></g><g class="relationship" transform="translate(139.12690659477465 170.7529787766125) rotate(284.1061675853812)"><path class="outline" fill="#A5ABB6" stroke="none" d="M 25 0.5 L 34.966962376319266 0.5 L 34.966962376319266 -0.5 L 25 -0.5 Z M 54.302899876319266 0.5 L 64.26986225263853 0.5 L 64.26986225263853 3.5 L 71.26986225263853 0 L 64.26986225263853 -3.5 L 64.26986225263853 -0.5 L 54.302899876319266 -0.5 Z"/><text text-anchor="middle" pointer-events="none" font-size="8px" fill="#000000" x="44.634931126319266" y="3" font-family="sans-serif">trek</text></g><g class="relationship" transform="translate(139.12690659477465 170.7529787766125) rotate(377.58715652161254)"><path class="outline" fill="#A5ABB6" stroke="none" d="M 25 0.5 L 44.35715042679713 0.5 L 44.35715042679713 -0.5 L 25 -0.5 Z M 63.69308792679713 0.5 L 83.05023835359427 0.5 L 83.05023835359427 3.5 L 90.05023835359427 0 L 83.05023835359427 -3.5 L 83.05023835359427 -0.5 L 63.69308792679713 -0.5 Z"/><text text-anchor="middle" pointer-events="none" font-size="8px" fill="#000000" x="54.02511917679713" y="3" font-family="sans-serif">trek</text></g><g class="relationship" transform="translate(95.34298211315544 35.715055057614194) rotate(231.69136150464203)"><path class="outline" fill="#A5ABB6" stroke="none" d="M 24.018736134675446,-6.953439040707552 L 24.277555179777966,-5.987513214418485 A 136.1930872149191 136.1930872149191 0 0 1 34.609147309025616,-8.329310901399992 L 34.426188150357305,-9.312431416016267 A 137.1930872149191 137.1930872149191 0 0 0 24.018736134675446,-6.953439040707552 Z M 80.83222556338706,-9.963787780158441 L 80.67693125495224,-8.975919530963353 A 136.1930872149191 136.1930872149191 0 0 1 91.0701794507682,-6.925016248979464 L 90.37535873408929,-4.006587875406828 L 97.99564910855082,-5.790172638990811 L 91.99660707300673,-10.816254080409646 L 91.30178635632782,-7.8978257068370095 A 137.1930872149191 137.1930872149191 0 0 0 80.83222556338706,-9.963787780158441"/><text text-anchor="middle" pointer-events="none" font-size="8px" fill="#000000" x="57.608481154208995" y="-8.114717160624792" transform="rotate(180 57.608481154208995 -11.114717160624792)" font-family="sans-serif">twowheeler</text></g><g class="relationship" transform="translate(19.519689329225823 -60.26413086570864) rotate(466.34183455232704)"><path class="outline" fill="#A5ABB6" stroke="none" d="M 21.40063509461097,12.933012701892217 L 21.90063509461097,12.06698729810778 A 44.1475525510876 44.1475525510876 0 0 0 22.959075664066138,12.658846205757598 L 22.483050731953092,13.538277990495203 A 45.1475525510876 45.1475525510876 0 0 1 21.40063509461097,12.933012701892217 Z M 62.58861645598495,14.965738175048926 L 62.17631935383823,14.054688725479139 A 44.1475525510876 44.1475525510876 0 0 0 63.27415983947316,13.53957740378856 L 61.9626659499545,10.84143289732579 L 69.78841266947273,10.929115745988819 L 65.02281835883137,17.137103412405587 L 63.711324469312714,14.438958905942815 A 45.1475525510876 45.1475525510876 0 0 1 62.58861645598495,14.965738175048926"/><text text-anchor="middle" pointer-events="none" font-size="8px" fill="#000000" x="42.38629581691376" y="21.453384212776285" transform="rotate(180 42.38629581691376 18.453384212776285)" font-family="sans-serif">twowhe…</text></g><g class="relationship" transform="translate(95.34298211315544 35.715055057614194) rotate(231.69136150464203)"><path class="outline" fill="#A5ABB6" stroke="none" d="M 24.018736134675446,6.953439040707552 L 24.277555179777966,5.987513214418485 A 136.1930872149191 136.1930872149191 0 0 0 47.996649275324614,10.139219094208102 L 47.911988071714575,11.135628889725638 A 137.1930872149191 137.1930872149191 0 0 1 24.018736134675446,6.953439040707552 Z M 67.30056745682252,11.407767500953412 L 67.24390536361999,10.409374087917286 A 136.1930872149191 136.1930872149191 0 0 0 91.0701794507682,6.925016248979464 L 90.37535873408929,4.006587875406828 L 97.99564910855082,5.790172638990811 L 91.99660707300673,10.816254080409646 L 91.30178635632782,7.8978257068370095 A 137.1930872149191 137.1930872149191 0 0 1 67.30056745682252,11.407767500953412"/><text text-anchor="middle" pointer-events="none" font-size="8px" fill="#000000" x="57.60848115420898" y="14.114717160624792" transform="rotate(180 57.60848115420898 11.114717160624792)" font-family="sans-serif">trek</text></g><g class="relationship" transform="translate(19.519689329225823 -60.26413086570864) rotate(466.34183455232704)"><path class="outline" fill="#A5ABB6" stroke="none" d="M 25 0.5 L 31.630615736664573 0.5 L 31.630615736664573 -0.5 L 25 -0.5 Z M 53.64233448666457 0.5 L 60.27295022332915 0.5 L 60.27295022332915 3.5 L 67.27295022332915 0 L 60.27295022332915 -3.5 L 60.27295022332915 -0.5 L 53.64233448666457 -0.5 Z"/><text text-anchor="middle" pointer-events="none" font-size="8px" fill="#000000" x="42.63647511166457" y="3" transform="rotate(180 42.63647511166457 0)" font-family="sans-serif">road</text></g><g class="relationship" transform="translate(19.519689329225823 -60.26413086570864) rotate(466.34183455232704)"><path class="outline" fill="#A5ABB6" stroke="none" d="M 21.40063509461097,-12.933012701892217 L 21.90063509461097,-12.06698729810778 A 44.1475525510876 44.1475525510876 0 0 1 32.96158985796295,-16.58597597590937 L 32.71213499861491,-17.55436240350305 A 45.1475525510876 45.1475525510876 0 0 0 21.40063509461097,-12.933012701892217 Z M 52.09989261574236,-18.24442253771641 L 51.919916497737006,-17.260751557689183 A 44.1475525510876 44.1475525510876 0 0 1 63.27415983947316,-13.53957740378856 L 61.9626659499545,-10.84143289732579 L 69.78841266947273,-10.929115745988819 L 65.02281835883137,-17.137103412405587 L 63.711324469312714,-14.438958905942815 A 45.1475525510876 45.1475525510876 0 0 0 52.09989261574236,-18.24442253771641"/><text text-anchor="middle" pointer-events="none" font-size="8px" fill="#000000" x="42.386295816913744" y="-15.453384212776285" transform="rotate(180 42.386295816913744 -18.453384212776285)" font-family="sans-serif">trek</text></g><g class="relationship" transform="translate(19.519689329225823 -60.26413086570864) rotate(490.34334869093783)"><path class="outline" fill="#A5ABB6" stroke="none" d="M 25 0.5 L 52.381295255326776 0.5 L 52.381295255326776 -0.5 L 25 -0.5 Z M 71.71723275532678 0.5 L 99.09852801065355 0.5 L 99.09852801065355 3.5 L 106.09852801065355 0 L 99.09852801065355 -3.5 L 99.09852801065355 -0.5 L 71.71723275532678 -0.5 Z"/><text text-anchor="middle" pointer-events="none" font-size="8px" fill="#000000" x="62.049264005326776" y="3" transform="rotate(180 62.049264005326776 0)" font-family="sans-serif">trek</text></g><g class="relationship" transform="translate(-65.34912058071146 39.656383299456905) rotate(400.61664414824577)"><path class="outline" fill="#A5ABB6" stroke="none" d="M 25 0.5 L 49.78529800706016 0.5 L 49.78529800706016 -0.5 L 25 -0.5 Z M 69.12123550706016 0.5 L 93.90653351412033 0.5 L 93.90653351412033 3.5 L 100.90653351412033 0 L 93.90653351412033 -3.5 L 93.90653351412033 -0.5 L 69.12123550706016 -0.5 Z"/><text text-anchor="middle" pointer-events="none" font-size="8px" fill="#000000" x="59.45326675706016" y="3" font-family="sans-serif">trek</text></g></g><g class="layer nodes"><g class="node" transform="translate(167.48310199168986,278.9310289858932)"><circle class="outline" cx="0" cy="0" r="25" fill="#F16667" stroke="#eb2728" stroke-width="2px"/><text text-anchor="middle" pointer-events="none" font-family="sans-serif" dy="1.5625" font-size="25" fill="#FFFFFF"/><text text-anchor="middle" pointer-events="none" y="5" font-size="10px" fill="#FFFFFF" font-family="sans-serif"> Darjeeling</text></g><g class="node" transform="translate(248.7995154168669,205.5161233319485)"><circle class="outline" cx="0" cy="0" r="25" fill="#D9C8AE" stroke="#c0a378" stroke-width="2px"/><text text-anchor="middle" pointer-events="none" font-family="sans-serif" dy="1.5625" font-size="25" fill="#604A0E"/><text text-anchor="middle" pointer-events="none" y="5" font-size="10px" fill="#604A0E" font-family="sans-serif"> Tumbling</text></g><g class="node" transform="translate(277.31858043868226,94.51304891107395)"><circle class="outline" cx="0" cy="0" r="25" fill="#D9C8AE" stroke="#c0a378" stroke-width="2px"/><text text-anchor="middle" pointer-events="none" font-family="sans-serif" dy="1.5625" font-size="25" fill="#604A0E"/><text text-anchor="middle" pointer-events="none" y="5" font-size="10px" fill="#604A0E" font-family="sans-serif"> Gairibus</text></g><g class="node" transform="translate(162.58974080948937,77.38605857060588)"><circle class="outline" cx="0" cy="0" r="25" fill="#D9C8AE" stroke="#c0a378" stroke-width="2px"/><text text-anchor="middle" pointer-events="none" font-family="sans-serif" dy="1.5625" font-size="25" fill="#604A0E"/><text text-anchor="middle" pointer-events="none" y="5" font-size="10px" fill="#604A0E" font-family="sans-serif"> BhikeBh…</text></g><g class="node" transform="translate(30.224291464718767,121.6208761700696)"><circle class="outline" cx="0" cy="0" r="25" fill="#8DCC93" stroke="#5db665" stroke-width="2px"/><text text-anchor="middle" pointer-events="none" font-family="sans-serif" dy="1.5625" font-size="25" fill="#604A0E"/><text text-anchor="middle" pointer-events="none" y="5" font-size="10px" fill="#604A0E" font-family="sans-serif"> Sandak…</text></g><g class="node" transform="translate(139.12690659477465,170.7529787766125)"><circle class="outline" cx="0" cy="0" r="25" fill="#F16667" stroke="#eb2728" stroke-width="2px"/><text text-anchor="middle" pointer-events="none" font-family="sans-serif" dy="1.5625" font-size="25" fill="#FFFFFF"/><text text-anchor="middle" pointer-events="none" y="5" font-size="10px" fill="#FFFFFF" font-family="sans-serif"> Rimbik</text></g><g class="node" transform="translate(95.34298211315544,35.715055057614194)"><circle class="outline" cx="0" cy="0" r="25" fill="#D9C8AE" stroke="#c0a378" stroke-width="2px"/><text text-anchor="middle" pointer-events="none" font-family="sans-serif" dy="1.5625" font-size="25" fill="#604A0E"/><text text-anchor="middle" pointer-events="none" y="5" font-size="10px" fill="#604A0E" font-family="sans-serif"> Sirikhola</text></g><g class="node" transform="translate(-6.442914136158005,28.281002056526102)"><circle class="outline" cx="0" cy="0" r="25" fill="#D9C8AE" stroke="#c0a378" stroke-width="2px"/><text text-anchor="middle" pointer-events="none" font-family="sans-serif" dy="1.5625" font-size="25" fill="#604A0E"/><text text-anchor="middle" pointer-events="none" y="5" font-size="10px" fill="#604A0E" font-family="sans-serif"> Gurdum</text></g><g class="node" transform="translate(19.519689329225823,-60.26413086570864)"><circle class="outline" cx="0" cy="0" r="25" fill="#D9C8AE" stroke="#c0a378" stroke-width="2px"/><text text-anchor="middle" pointer-events="none" font-family="sans-serif" dy="1.5625" font-size="25" fill="#604A0E"/><text text-anchor="middle" pointer-events="none" y="5" font-size="10px" fill="#604A0E" font-family="sans-serif"> Rammam</text></g><g class="node" transform="translate(-65.34912058071146,39.656383299456905)"><circle class="outline" cx="0" cy="0" r="25" fill="#8DCC93" stroke="#5db665" stroke-width="2px"/><text text-anchor="middle" pointer-events="none" font-family="sans-serif" dy="1.5625" font-size="25" fill="#604A0E"/><text text-anchor="middle" pointer-events="none" y="5" font-size="10px" fill="#604A0E" font-family="sans-serif"> Sabargr…</text></g></g></svg>