<svg xmlns="http://www.w3.org/2000/svg" width="478.20751953125" height="362.8693542480469" viewBox="-238.2480926513672 -58.086910247802734 478.20751953125 362.8693542480469"><title>Neo4j Graph Visualization</title><desc>Created using Neo4j (http://www.neo4j.com/)</desc><g class="layer relationships"><g class="relationship" transform="translate(92.21294831714219 71.53893560961772) rotate(299.9387108494703)"><path class="outline" fill="#A5ABB6" stroke="none" d="M 25 0.5 L 44.30629093721552 0.5 L 44.30629093721552 -0.5 L 25 -0.5 Z M 63.64222843721552 0.5 L 82.94851937443104 0.5 L 82.94851937443104 3.5 L 89.94851937443104 0 L 82.94851937443104 -3.5 L 82.94851937443104 -0.5 L 63.64222843721552 -0.5 Z"/><text text-anchor="middle" pointer-events="none" font-size="8px" fill="#000000" x="53.97425968721552" y="3" font-family="sans-serif">trek</text></g><g class="relationship" transform="translate(92.21294831714219 71.53893560961772) rotate(538.5016819552711)"><path class="outline" fill="#A5ABB6" stroke="none" d="M 25 0.5 L 60.49168557245409 0.5 L 60.49168557245409 -0.5 L 25 -0.5 Z M 79.82762307245409 0.5 L 115.31930864490818 0.5 L 115.31930864490818 3.5 L 122.31930864490818 0 L 115.31930864490818 -3.5 L 115.31930864490818 -0.5 L 79.82762307245409 -0.5 Z"/><text text-anchor="middle" pointer-events="none" font-size="8px" fill="#000000" x="70.15965432245409" y="3" transform="rotate(180 70.15965432245409 0)" font-family="sans-serif">trek</text></g><g class="relationship" transform="translate(92.21294831714219 71.53893560961772) rotate(456.4297598696085)"><path class="outline" fill="#A5ABB6" stroke="none" d="M 24.018736134675446,-6.953439040707552 L 24.277555179777966,-5.987513214418485 A 118.02030515947091 118.02030515947091 0 0 1 43.43135116081138,-9.457849821602736 L 43.33482449374629,-10.453180220287166 A 119.02030515947091 119.02030515947091 0 0 0 24.018736134675446,-6.953439040707552 Z M 62.72859464479311,-10.746144209533298 L 62.66217625702019,-9.74835234858952 A 118.02030515947091 118.02030515947091 0 0 1 81.9120551714912,-6.8581450154696935 L 81.2234805078934,-3.9382366380285156 L 88.83993716278691,-5.738122196648352 L 82.83015472295493,-10.751356185391264 L 82.14158005935712,-7.831447807950086 A 119.02030515947091 119.02030515947091 0 0 0 62.72859464479311,-10.746144209533298"/><text text-anchor="middle" pointer-events="none" font-size="8px" fill="#000000" x="53.03328400292281" y="-7.495437103609007" transform="rotate(180 53.03328400292281 -10.495437103609007)" font-family="sans-serif">trek</text></g><g class="relationship" transform="translate(92.21294831714219 71.53893560961772) rotate(456.4297598696085)"><path class="outline" fill="#A5ABB6" stroke="none" d="M 24.018736134675446,6.953439040707552 L 24.277555179777966,5.987513214418485 A 118.02030515947091 118.02030515947091 0 0 0 30.09105383144258,7.388395158136717 L 29.88149324778709,8.366190822771188 A 119.02030515947091 119.02030515947091 0 0 1 24.018736134675446,6.953439040707552 Z M 76.2388254598874,9.066468740364854 L 76.05889508945747,8.08278939128968 A 118.02030515947091 118.02030515947091 0 0 0 81.9120551714912,6.8581450154696935 L 81.2234805078934,3.9382366380285156 L 88.83993716278691,5.738122196648352 L 82.83015472295493,10.751356185391264 L 82.14158005935712,7.831447807950086 A 119.02030515947091 119.02030515947091 0 0 1 76.2388254598874,9.066468740364854"/><text text-anchor="middle" pointer-events="none" font-size="8px" fill="#000000" x="53.03328400292287" y="13.495437103609007" transform="rotate(180 53.03328400292287 10.495437103609007)" font-family="sans-serif">twowheeler</text></g><g class="relationship" transform="translate(210.95940500080928 59.8348448691375) rotate(235.07595007150735)"><path class="outline" fill="#A5ABB6" stroke="none" d="M 24.018736134675446,-6.953439040707552 L 24.277555179777966,-5.987513214418485 A 106.13000989142975 106.13000989142975 0 0 1 39.134753311641084,-8.851852618195664 L 39.01592481348247,-9.844767412135894 A 107.13000989142975 107.13000989142975 0 0 0 24.018736134675446,-6.953439040707552 Z M 61.0888247649243,-10.195635441754732 L 61.00161482461164,-9.199445486821105 A 106.13000989142975 106.13000989142975 0 0 1 75.9423460061819,-6.808770203659101 L 75.25838329758508,-3.8877780754175832 L 82.87198809017823,-5.699689238306788 L 76.85429628431098,-10.70342637464779 L 76.17033357571417,-7.7824342464062735 A 107.13000989142975 107.13000989142975 0 0 0 61.0888247649243,-10.195635441754732"/><text text-anchor="middle" pointer-events="none" font-size="8px" fill="#000000" x="50.05125992953629" y="-7.090336588357147" transform="rotate(180 50.05125992953629 -10.090336588357147)" font-family="sans-serif">road</text></g><g class="relationship" transform="translate(210.95940500080928 59.8348448691375) rotate(235.07595007150735)"><path class="outline" fill="#A5ABB6" stroke="none" d="M 24.018736134675446,6.953439040707552 L 24.277555179777966,5.987513214418485 A 106.13000989142975 106.13000989142975 0 0 0 40.457893616873115,9.00178790127606 L 40.351532283341975,9.996115446267893 A 107.13000989142975 107.13000989142975 0 0 1 24.018736134675446,6.953439040707552 Z M 59.74908168096562,10.304456441404497 L 59.674377508974246,9.30725070200711 A 106.13000989142975 106.13000989142975 0 0 0 75.9423460061819,6.808770203659101 L 75.25838329758508,3.8877780754175832 L 82.87198809017823,5.699689238306788 L 76.85429628431098,10.70342637464779 L 76.17033357571417,7.7824342464062735 A 107.13000989142975 107.13000989142975 0 0 1 59.74908168096562,10.304456441404497"/><text text-anchor="middle" pointer-events="none" font-size="8px" fill="#000000" x="50.051259929536336" y="13.090336588357147" transform="rotate(180 50.051259929536336 10.090336588357147)" font-family="sans-serif">trek</text></g><g class="relationship" transform="translate(210.95940500080928 59.8348448691375) rotate(534.3708972424573)"><path class="outline" fill="#A5ABB6" stroke="none" d="M 21.40063509461097,12.933012701892217 L 21.90063509461097,12.06698729810778 A 72.17669479225448 72.17669479225448 0 0 0 45.11388532369585,20.57919788287488 L 44.93550229848112,21.56315900828342 A 73.17669479225448 73.17669479225448 0 0 1 21.40063509461097,12.933012701892217 Z M 67.00544655273949,22.17922469806456 L 66.88223158535678,21.18684469432965 A 72.17669479225448 72.17669479225448 0 0 0 90.53418797893562,13.982840669221414 L 89.18145747852111,11.305132658020735 L 97.00762842180629,11.272754170120987 L 92.33782864615497,17.553118017488984 L 90.98509814574047,14.875410006288305 A 73.17669479225448 73.17669479225448 0 0 1 67.00544655273949,22.17922469806456"/><text text-anchor="middle" pointer-events="none" font-size="8px" fill="#000000" x="55.96105782210069" y="25.20853236404612" transform="rotate(180 55.96105782210069 22.20853236404612)" font-family="sans-serif">road</text></g><g class="relationship" transform="translate(210.95940500080928 59.8348448691375) rotate(534.3708972424573)"><path class="outline" fill="#A5ABB6" stroke="none" d="M 25 0.5 L 25.297649674239317 0.5 L 25.297649674239317 -0.5 L 25 -0.5 Z M 87.02421217423932 0.5 L 87.32186184847863 0.5 L 87.32186184847863 3.5 L 94.32186184847863 0 L 87.32186184847863 -3.5 L 87.32186184847863 -0.5 L 87.02421217423932 -0.5 Z"/><text text-anchor="middle" pointer-events="none" font-size="8px" fill="#000000" x="56.16093092423932" y="3" transform="rotate(180 56.16093092423932 0)" font-family="sans-serif">PublicTransport</text></g><g class="relationship" transform="translate(210.95940500080928 59.8348448691375) rotate(534.3708972424573)"><path class="outline" fill="#A5ABB6" stroke="none" d="M 21.40063509461097,-12.933012701892217 L 21.90063509461097,-12.06698729810778 A 72.17669479225448 72.17669479225448 0 0 1 46.42336859727338,-20.804166297792335 L 46.263128315742705,-21.791244335322787 A 73.17669479225448 73.17669479225448 0 0 0 21.40063509461097,-12.933012701892217 Z M 65.6671641673993,-22.332893221870492 L 65.56223756886327,-21.33841325278128 A 72.17669479225448 72.17669479225448 0 0 1 90.53418797893562,-13.982840669221414 L 89.18145747852111,-11.305132658020735 L 97.00762842180629,-11.272754170120987 L 92.33782864615497,-17.553118017488984 L 90.98509814574047,-14.875410006288305 A 73.17669479225448 73.17669479225448 0 0 0 65.6671641673993,-22.332893221870492"/><text text-anchor="middle" pointer-events="none" font-size="8px" fill="#000000" x="55.9610578221007" y="-19.20853236404612" transform="rotate(180 55.9610578221007 -22.20853236404612)" font-family="sans-serif">trek</text></g><g class="relationship" transform="translate(-55.05599082289461 75.39098236191127) rotate(506.0671294602855)"><path class="outline" fill="#A5ABB6" stroke="none" d="M 25 0.5 L 79.75329995447484 0.5 L 79.75329995447484 -0.5 L 25 -0.5 Z M 99.08923745447484 0.5 L 153.84253740894968 0.5 L 153.84253740894968 3.5 L 160.84253740894968 0 L 153.84253740894968 -3.5 L 153.84253740894968 -0.5 L 99.08923745447484 -0.5 Z"/><text text-anchor="middle" pointer-events="none" font-size="8px" fill="#000000" x="89.42126870447484" y="3" transform="rotate(180 89.42126870447484 0)" font-family="sans-serif">trek</text></g><g class="relationship" transform="translate(79.53931517959634 183.9995747597458) rotate(481.45005932558996)"><path class="outline" fill="#A5ABB6" stroke="none" d="M 24.018736134675446,-6.953439040707552 L 24.277555179777966,-5.987513214418485 A 106.8784761649712 106.8784761649712 0 0 1 40.64469962023572,-9.030796694790013 L 40.53901846620113,-10.025196762007383 A 107.8784761649712 107.8784761649712 0 0 0 24.018736134675446,-6.953439040707552 Z M 59.936322243775265,-10.332524085709707 L 59.86219641065969,-9.335275189563447 A 106.8784761649712 106.8784761649712 0 0 1 76.31753598771036,-6.812025126517935 L 75.63326924272214,-3.8911042063793526 L 83.24706259219842,-5.702222874901848 L 77.22989164769466,-10.706586353369378 L 76.54562490270644,-7.785665433230796 A 107.8784761649712 107.8784761649712 0 0 0 59.936322243775265,-10.332524085709707"/><text text-anchor="middle" pointer-events="none" font-size="8px" fill="#000000" x="50.23866893264356" y="-7.115834091239051" transform="rotate(180 50.23866893264356 -10.115834091239051)" font-family="sans-serif">trek</text></g><g class="relationship" transform="translate(79.53931517959634 183.9995747597458) rotate(481.45005932558996)"><path class="outline" fill="#A5ABB6" stroke="none" d="M 24.018736134675446,6.953439040707552 L 24.277555179777966,5.987513214418485 A 106.8784761649712 106.8784761649712 0 0 0 27.344694995726172,6.7608920022415475 L 27.114573401466924,7.734053885925647 A 107.8784761649712 107.8784761649712 0 0 1 24.018736134675446,6.953439040707552 Z M 73.42661189128641,8.467813330407296 L 73.22743525909502,7.487849724354049 A 106.8784761649712 106.8784761649712 0 0 0 76.31753598771036,6.812025126517935 L 75.63326924272214,3.8911042063793526 L 83.24706259219842,5.702222874901848 L 77.22989164769466,10.706586353369378 L 76.54562490270644,7.785665433230796 A 107.8784761649712 107.8784761649712 0 0 1 73.42661189128641,8.467813330407296"/><text text-anchor="middle" pointer-events="none" font-size="8px" fill="#000000" x="50.23866893264357" y="13.115834091239051" transform="rotate(180 50.23866893264357 10.115834091239051)" font-family="sans-serif">twowheeler</text></g><g class="relationship" transform="translate(79.53931517959634 183.9995747597458) rotate(537.0553846155034)"><path class="outline" fill="#A5ABB6" stroke="none" d="M 24.018736134675446,-6.953439040707552 L 24.277555179777966,-5.987513214418485 A 156.98832006772213 156.98832006772213 0 0 1 53.24508360261574,-10.902848995380907 L 53.170784835266,-11.900085022192172 A 157.98832006772213 157.98832006772213 0 0 0 24.018736134675446,-6.953439040707552 Z M 72.55429713966218,-12.151674176101778 L 72.50590637973492,-11.152845695153388 A 156.98832006772213 156.98832006772213 0 0 1 101.59125235368734,-6.991009760975488 L 100.89026778236556,-4.074055762234879 L 108.51430911263571,-5.841538094348113 L 102.52589844878304,-10.880281759296299 L 101.82491387746126,-7.96332776055569 A 157.98832006772213 157.98832006772213 0 0 0 72.55429713966218,-12.151674176101778"/><text text-anchor="middle" pointer-events="none" font-size="8px" fill="#000000" x="62.86516783091058" y="-8.823496263158574" transform="rotate(180 62.86516783091058 -11.823496263158574)" font-family="sans-serif">trek</text></g><g class="relationship" transform="translate(79.53931517959634 183.9995747597458) rotate(537.0553846155034)"><path class="outline" fill="#A5ABB6" stroke="none" d="M 24.018736134675446,6.953439040707552 L 24.277555179777966,5.987513214418485 A 156.98832006772213 156.98832006772213 0 0 0 39.820970821753164,9.319138615596046 L 39.66116178984952,10.306286564650321 A 157.98832006772213 157.98832006772213 0 0 1 24.018736134675446,6.953439040707552 Z M 86.10073564409234,10.909051064212179 L 85.96660159315076,9.918087867933934 A 156.98832006772213 156.98832006772213 0 0 0 101.59125235368734,6.991009760975488 L 100.89026778236556,4.074055762234879 L 108.51430911263571,5.841538094348113 L 102.52589844878304,10.880281759296299 L 101.82491387746126,7.96332776055569 A 157.98832006772213 157.98832006772213 0 0 1 86.10073564409234,10.909051064212179"/><text text-anchor="middle" pointer-events="none" font-size="8px" fill="#000000" x="62.865167830910565" y="14.823496263158574" transform="rotate(180 62.865167830910565 11.823496263158574)" font-family="sans-serif">twowheeler</text></g><g class="relationship" transform="translate(-53.10757317102519 190.82273560307553) rotate(184.28184484442545)"><path class="outline" fill="#A5ABB6" stroke="none" d="M 24.018736134675446,6.953439040707552 L 24.277555179777966,5.987513214418485 A 203.7604693361691 203.7604693361691 0 0 0 51.64511102912532,11.344976337129765 L 51.520604375128435,12.337195109936715 A 204.7604693361691 204.7604693361691 0 0 1 24.018736134675446,6.953439040707552 Z M 97.99596531270237,12.852693212721476 L 97.89349768260894,11.8579568733918 A 203.7604693361691 203.7604693361691 0 0 0 125.37315415719767,7.108851240017714 L 124.66116361705407,4.194564110933481 L 132.29182254841817,5.93325450119668 L 126.32247487738915,10.994567412130024 L 125.61048433724555,8.080280283045791 A 204.7604693361691 204.7604693361691 0 0 1 97.99596531270237,12.852693212721476"/><text text-anchor="middle" pointer-events="none" font-size="8px" fill="#000000" x="74.74915652401513" y="16.417918988641162" transform="rotate(180 74.74915652401513 13.417918988641162)" font-family="sans-serif">twowheeler</text></g><g class="relationship" transform="translate(-53.10757317102519 190.82273560307553) rotate(184.28184484442545)"><path class="outline" fill="#A5ABB6" stroke="none" d="M 24.018736134675446,-6.953439040707552 L 24.277555179777966,-5.987513214418485 A 203.7604693361691 203.7604693361691 0 0 1 65.11712369672759,-12.582839660427084 L 65.05873395300036,-13.58113352388986 A 204.7604693361691 204.7604693361691 0 0 0 24.018736134675446,-6.953439040707552 Z M 84.4335747167869,-13.796036505900162 L 84.39734248183534,-12.79669310888869 A 203.7604693361691 203.7604693361691 0 0 1 125.37315415719767,-7.108851240017714 L 124.66116361705407,-4.194564110933481 L 132.29182254841817,-5.93325450119668 L 126.32247487738915,-10.994567412130024 L 125.61048433724555,-8.080280283045791 A 204.7604693361691 204.7604693361691 0 0 0 84.4335747167869,-13.796036505900162"/><text text-anchor="middle" pointer-events="none" font-size="8px" fill="#000000" x="74.74915652401508" y="-10.417918988641162" transform="rotate(180 74.74915652401508 -13.417918988641162)" font-family="sans-serif">trek</text></g><g class="relationship" transform="translate(149.5806885366822 -28.07082540042245) rotate(539.3069678227662)"><path class="outline" fill="#A5ABB6" stroke="none" d="M 21.40063509461097,-12.933012701892217 L 21.90063509461097,-12.06698729810778 A 72.13908381098395 72.13908381098395 0 0 1 46.40510560459459,-20.79872286295793 L 46.24478929913927,-21.785788555911125 A 73.13908381098395 73.13908381098395 0 0 0 21.40063509461097,-12.933012701892217 Z M 65.64883003933092,-22.327595671012233 L 65.54384303868606,-21.3331220767446 A 72.13908381098395 72.13908381098395 0 0 1 90.49737492180765,-13.982371944468241 L 89.14468802019972,-11.304641908370808 L 96.97085948963631,-11.272390846732662 L 92.30095745728487,-17.552678659264817 L 90.94827055567694,-14.874948623167384 A 73.13908381098395 73.13908381098395 0 0 0 65.64883003933092,-22.327595671012233"/><text text-anchor="middle" pointer-events="none" font-size="8px" fill="#000000" x="55.9427106776031" y="-19.203491589518876" transform="rotate(180 55.9427106776031 -22.203491589518876)" font-family="sans-serif">trek</text></g><g class="relationship" transform="translate(149.5806885366822 -28.07082540042245) rotate(539.3069678227662)"><path class="outline" fill="#A5ABB6" stroke="none" d="M 25 0.5 L 45.13677885355744 0.5 L 45.13677885355744 -0.5 L 25 -0.5 Z M 67.14849760355744 0.5 L 87.28527645711488 0.5 L 87.28527645711488 3.5 L 94.28527645711488 0 L 87.28527645711488 -3.5 L 87.28527645711488 -0.5 L 67.14849760355744 -0.5 Z"/><text text-anchor="middle" pointer-events="none" font-size="8px" fill="#000000" x="56.14263822855744" y="3" transform="rotate(180 56.14263822855744 0)" font-family="sans-serif">road</text></g><g class="relationship" transform="translate(149.5806885366822 -28.07082540042245) rotate(539.3069678227662)"><path class="outline" fill="#A5ABB6" stroke="none" d="M 21.40063509461097,12.933012701892217 L 21.90063509461097,12.06698729810778 A 72.13908381098395 72.13908381098395 0 0 0 33.38646205513389,17.413710556677387 L 33.04567986542127,18.353852832705158 A 73.13908381098395 73.13908381098395 0 0 1 21.40063509461097,12.933012701892217 Z M 79.01888023948389,19.637534278242597 L 78.73109015321786,18.679840764509223 A 72.13908381098395 72.13908381098395 0 0 0 90.49737492180765,13.982371944468241 L 89.14468802019972,11.304641908370808 L 96.97085948963631,11.272390846732662 L 92.30095745728487,17.552678659264817 L 90.94827055567694,14.874948623167384 A 73.13908381098395 73.13908381098395 0 0 1 79.01888023948389,19.637534278242597"/><text text-anchor="middle" pointer-events="none" font-size="8px" fill="#000000" x="55.942710677603095" y="25.203491589518876" transform="rotate(180 55.942710677603095 22.203491589518876)" font-family="sans-serif">twowheeler</text></g><g class="relationship" transform="translate(30.30413803688589 -26.628022461742376) rotate(489.91949627651366)"><path class="outline" fill="#A5ABB6" stroke="none" d="M 21.40063509461097,12.933012701892217 L 21.90063509461097,12.06698729810778 A 86.21882935125164 86.21882935125164 0 0 0 40.102482685096874,19.9420048081722 L 39.81359489489425,20.89936777208497 A 87.21882935125164 87.21882935125164 0 0 1 21.40063509461097,12.933012701892217 Z M 85.97470611738082,22.061014009870235 L 85.73433764989412,21.090332290747995 A 86.21882935125164 86.21882935125164 0 0 0 104.30924555421787,14.14080332563185 L 102.94182282023903,11.470568304777348 L 110.76769772520818,11.395189449823649 L 106.13247586618965,17.701116686771186 L 104.76505313221081,15.030881665916684 A 87.21882935125164 87.21882935125164 0 0 1 85.97470611738082,22.061014009870235"/><text text-anchor="middle" pointer-events="none" font-size="8px" fill="#000000" x="62.828457578558684" y="27.090674563080427" transform="rotate(180 62.828457578558684 24.090674563080427)" font-family="sans-serif">twowheeler</text></g><g class="relationship" transform="translate(30.30413803688589 -26.628022461742376) rotate(489.91949627651366)"><path class="outline" fill="#A5ABB6" stroke="none" d="M 25 0.5 L 52.00396874116453 0.5 L 52.00396874116453 -0.5 L 25 -0.5 Z M 74.01568749116453 0.5 L 101.01965623232906 0.5 L 101.01965623232906 3.5 L 108.01965623232906 0 L 101.01965623232906 -3.5 L 101.01965623232906 -0.5 L 74.01568749116453 -0.5 Z"/><text text-anchor="middle" pointer-events="none" font-size="8px" fill="#000000" x="63.00982811616453" y="3" transform="rotate(180 63.00982811616453 0)" font-family="sans-serif">road</text></g><g class="relationship" transform="translate(30.30413803688589 -26.628022461742376) rotate(489.91949627651366)"><path class="outline" fill="#A5ABB6" stroke="none" d="M 21.40063509461097,-12.933012701892217 L 21.90063509461097,-12.06698729810778 A 86.21882935125164 86.21882935125164 0 0 1 53.265211736050745,-22.814425954489934 L 53.12899047066638,-23.80510439215631 A 87.21882935125164 87.21882935125164 0 0 0 21.40063509461097,-12.933012701892217 Z M 72.53001119213552,-24.293331866180154 L 72.44379172005783,-23.29705569832575 A 86.21882935125164 86.21882935125164 0 0 1 104.30924555421787,-14.14080332563185 L 102.94182282023903,-11.470568304777348 L 110.76769772520818,-11.395189449823649 L 106.13247586618965,-17.701116686771186 L 104.76505313221081,-15.030881665916684 A 87.21882935125164 87.21882935125164 0 0 0 72.53001119213552,-24.293331866180154"/><text text-anchor="middle" pointer-events="none" font-size="8px" fill="#000000" x="62.82845757855866" y="-21.090674563080427" transform="rotate(180 62.82845757855866 -24.090674563080427)" font-family="sans-serif">trek</text></g><g class="relationship" transform="translate(23.404682186651108 275.78244811323333) rotate(187.05180226715083)"><path class="outline" fill="#A5ABB6" stroke="none" d="M 25 0.5 L 50.34350059438508 0.5 L 50.34350059438508 -0.5 L 25 -0.5 Z M 69.67943809438508 0.5 L 95.02293868877015 0.5 L 95.02293868877015 3.5 L 102.02293868877015 0 L 95.02293868877015 -3.5 L 95.02293868877015 -0.5 L 69.67943809438508 -0.5 Z"/><text text-anchor="middle" pointer-events="none" font-size="8px" fill="#000000" x="60.01146934438508" y="3" transform="rotate(180 60.01146934438508 0)" font-family="sans-serif">trek</text></g><g class="relationship" transform="translate(23.404682186651108 275.78244811323333) rotate(227.99471677484877)"><path class="outline" fill="#A5ABB6" stroke="none" d="M 21.40063509461097,12.933012701892217 L 21.90063509461097,12.06698729810778 A 67.04301919830758 67.04301919830758 0 0 0 43.934279791389685,20.05748964010249 L 43.76292914161667,21.042699747045347 A 68.04301919830758 68.04301919830758 0 0 1 21.40063509461097,12.933012701892217 Z M 63.16735896362047,21.606799621692133 L 63.053530765502416,20.613299173119913 A 67.04301919830758 67.04301919830758 0 0 0 85.51415176844812,13.916275172614759 L 84.16761304892803,11.235448159017427 L 91.99383792009525,11.221155996000764 L 87.30953672780824,17.490711190744534 L 85.96299800828815,14.809884177147202 A 68.04301919830758 68.04301919830758 0 0 1 63.16735896362047,21.606799621692133"/><text text-anchor="middle" pointer-events="none" font-size="8px" fill="#000000" x="53.45945269253895" y="24.520526358359078" transform="rotate(180 53.45945269253895 21.520526358359078)" font-family="sans-serif">trek</text></g><g class="relationship" transform="translate(23.404682186651108 275.78244811323333) rotate(227.99471677484877)"><path class="outline" fill="#A5ABB6" stroke="none" d="M 25 0.5 L 42.66117214170316 0.5 L 42.66117214170316 -0.5 L 25 -0.5 Z M 64.67289089170316 0.5 L 82.33406303340632 0.5 L 82.33406303340632 3.5 L 89.33406303340632 0 L 82.33406303340632 -3.5 L 82.33406303340632 -0.5 L 64.67289089170316 -0.5 Z"/><text text-anchor="middle" pointer-events="none" font-size="8px" fill="#000000" x="53.66703151670316" y="3" transform="rotate(180 53.66703151670316 0)" font-family="sans-serif">road</text></g><g class="relationship" transform="translate(23.404682186651108 275.78244811323333) rotate(227.99471677484877)"><path class="outline" fill="#A5ABB6" stroke="none" d="M 21.40063509461097,-12.933012701892217 L 21.90063509461097,-12.06698729810778 A 67.04301919830758 67.04301919830758 0 0 1 30.989241090750337,-16.43839008321541 L 30.624804884040376,-17.36961843933375 A 68.04301919830758 68.04301919830758 0 0 0 21.40063509461097,-12.933012701892217 Z M 76.49667338547059,-18.703144624273648 L 76.18694978795817,-17.752317987528563 A 67.04301919830758 67.04301919830758 0 0 1 85.51415176844812,-13.916275172614759 L 84.16761304892803,-11.235448159017427 L 91.99383792009525,-11.221155996000764 L 87.30953672780824,-17.490711190744534 L 85.96299800828815,-14.809884177147202 A 68.04301919830758 68.04301919830758 0 0 0 76.49667338547059,-18.703144624273648"/><text text-anchor="middle" pointer-events="none" font-size="8px" fill="#000000" x="53.459452692538946" y="-18.520526358359078" transform="rotate(180 53.459452692538946 -21.520526358359078)" font-family="sans-serif">twowheeler</text></g><g class="relationship" transform="translate(-102.65739928932335 260.18826435531133) rotate(217.25088375251812)"><path class="outline" fill="#A5ABB6" stroke="none" d="M 25 0.5 L 53.78659900213481 0.5 L 53.78659900213481 -0.5 L 25 -0.5 Z M 73.1225365021348 0.5 L 101.90913550426961 0.5 L 101.90913550426961 3.5 L 108.90913550426961 0 L 101.90913550426961 -3.5 L 101.90913550426961 -0.5 L 73.1225365021348 -0.5 Z"/><text text-anchor="middle" pointer-events="none" font-size="8px" fill="#000000" x="63.45456775213481" y="3" transform="rotate(180 63.45456775213481 0)" font-family="sans-serif">trek</text></g></g><g class="layer nodes"><g class="node" transform="translate(92.21294831714219,71.53893560961772)"><circle class="outline" cx="0" cy="0" r="25" fill="#F16667" stroke="#eb2728" stroke-width="2px"/><text text-anchor="middle" pointer-events="none" font-family="sans-serif" dy="1.5625" font-size="25" fill="#FFFFFF"/><text text-anchor="middle" pointer-events="none" y="5" font-size="10px" fill="#FFFFFF" font-family="sans-serif"> Rimbik</text></g><g class="node" transform="translate(-53.10757317102519,190.82273560307553)"><circle class="outline" cx="0" cy="0" r="25" fill="#D9C8AE" stroke="#c0a378" stroke-width="2px"/><text text-anchor="middle" pointer-events="none" font-family="sans-serif" dy="1.5625" font-size="25" fill="#604A0E"/><text text-anchor="middle" pointer-events="none" y="5" font-size="10px" fill="#604A0E" font-family="sans-serif"> Gurdum</text></g><g class="node" transform="translate(79.53931517959634,183.9995747597458)"><circle class="outline" cx="0" cy="0" r="25" fill="#D9C8AE" stroke="#c0a378" stroke-width="2px"/><text text-anchor="middle" pointer-events="none" font-family="sans-serif" dy="1.5625" font-size="25" fill="#604A0E"/><text text-anchor="middle" pointer-events="none" y="5" font-size="10px" fill="#604A0E" font-family="sans-serif"> Sirikhola</text></g><g class="node" transform="translate(-209.2480890810294,179.1322255844145)"><circle class="outline" cx="0" cy="0" r="25" fill="#8DCC93" stroke="#5db665" stroke-width="2px"/><text text-anchor="middle" pointer-events="none" font-family="sans-serif" dy="1.5625" font-size="25" fill="#604A0E"/><text text-anchor="middle" pointer-events="none" y="5" font-size="10px" fill="#604A0E" font-family="sans-serif"> Sandak…</text></g><g class="node" transform="translate(23.404682186651108,275.78244811323333)"><circle class="outline" cx="0" cy="0" r="25" fill="#D9C8AE" stroke="#c0a378" stroke-width="2px"/><text text-anchor="middle" pointer-events="none" font-family="sans-serif" dy="1.5625" font-size="25" fill="#604A0E"/><text text-anchor="middle" pointer-events="none" y="5" font-size="10px" fill="#604A0E" font-family="sans-serif"> Rammam</text></g><g class="node" transform="translate(210.95940500080928,59.8348448691375)"><circle class="outline" cx="0" cy="0" r="25" fill="#F16667" stroke="#eb2728" stroke-width="2px"/><text text-anchor="middle" pointer-events="none" font-family="sans-serif" dy="1.5625" font-size="25" fill="#FFFFFF"/><text text-anchor="middle" pointer-events="none" y="5" font-size="10px" fill="#FFFFFF" font-family="sans-serif"> Darjeeling</text></g><g class="node" transform="translate(30.30413803688589,-26.628022461742376)"><circle class="outline" cx="0" cy="0" r="25" fill="#D9C8AE" stroke="#c0a378" stroke-width="2px"/><text text-anchor="middle" pointer-events="none" font-family="sans-serif" dy="1.5625" font-size="25" fill="#604A0E"/><text text-anchor="middle" pointer-events="none" y="5" font-size="10px" fill="#604A0E" font-family="sans-serif"> Gairibus</text></g><g class="node" transform="translate(149.5806885366822,-28.07082540042245)"><circle class="outline" cx="0" cy="0" r="25" fill="#D9C8AE" stroke="#c0a378" stroke-width="2px"/><text text-anchor="middle" pointer-events="none" font-family="sans-serif" dy="1.5625" font-size="25" fill="#604A0E"/><text text-anchor="middle" pointer-events="none" y="5" font-size="10px" fill="#604A0E" font-family="sans-serif"> Tumbling</text></g><g class="node" transform="translate(-102.65739928932335,260.18826435531133)"><circle class="outline" cx="0" cy="0" r="25" fill="#8DCC93" stroke="#5db665" stroke-width="2px"/><text text-anchor="middle" pointer-events="none" font-family="sans-serif" dy="1.5625" font-size="25" fill="#604A0E"/><text text-anchor="middle" pointer-events="none" y="5" font-size="10px" fill="#604A0E" font-family="sans-serif"> Sabargr…</text></g><g class="node" transform="translate(-55.05599082289461,75.39098236191127)"><circle class="outline" cx="0" cy="0" r="25" fill="#D9C8AE" stroke="#c0a378" stroke-width="2px"/><text text-anchor="middle" pointer-events="none" font-family="sans-serif" dy="1.5625" font-size="25" fill="#604A0E"/><text text-anchor="middle" pointer-events="none" y="5" font-size="10px" fill="#604A0E" font-family="sans-serif"> BhikeBh…</text></g></g></svg>